M48
;Layer_Color=8388608
;FILE_FORMAT=2:4
INCH,LZ
;TYPE=PLATED
T1F00S00C0.0120
T2F00S00C0.0180
T3F00S00C0.0360
T5F00S00C0.0460
%
T01
X0396Y00955
X04Y009157
X0407Y0107
X041414Y010571
X0417Y0117
X042828Y011985
X03685Y01145
X03605Y0107
X03535Y00995
X03465Y00925
X03395Y00855
X0332Y00785
X03255Y00715
X0318Y00645
X03105Y007169
X03045Y0078
X03115Y0085
X032481Y0086
X03185Y00925
X03255Y0099
X033881Y01
X03325Y01065
X034Y01135
X03465Y01205
X035303Y011434
X031836Y012064
X031136Y011314
X030436Y010664
X029736Y009914
X029036Y009214
X028232Y008606
X028Y008
X0259Y0088
Y01
Y0113
X0261Y0119
X0278
X028322Y011328
X0271Y0112
X027622Y010628
X029022Y012078
X02445Y01075
X024Y0088
Y00775
X02445Y0066
X024424Y005643
X026Y006
X026339Y00485
X028Y005
X027983Y003588
X02905Y004
X03Y003
X029663Y001909
X031Y002
X0314
X03145Y0014
X031338Y000494
X031077
X0325Y00245
X032929Y002085
X03315Y0031
X03185Y0032
X0324Y0039
X03155Y00445
X0309Y0045
Y0051
X03Y006
X0352Y00515
X035757Y004914
X0363Y00625
X037172Y006328
X03755Y0075
X038343
X03835Y0083
X03775Y00925
X036546Y008191
X0341Y00405
X034343Y0035
X02355Y0066
X0224Y0065
X022369Y005914
X02145Y0066
X02055
X020313Y005643
X019Y006
X018398Y00485
X0169Y00475
X01678Y003614
X015Y003
X015074Y001909
X014Y002
X013
X011808Y002085
X01175Y00305
X010394Y0035
X01065Y004
X0096Y00505
X00898Y004914
X0083Y0064
X00925Y00695
X01145Y0079
X0107Y00865
X00995Y0094
X00925Y0101
X010019Y01085
X0107Y0115
X01Y0122
X0086Y012269
X00845Y0109
X0114Y0108
X0121Y0101
X011434Y009434
X0128Y0094
X0135Y0087
X01285Y008
X0142
X0149Y00725
X01425Y0066
X01565Y00655
X016384Y005899
X015677Y005192
X01445Y00475
X014Y004
X0135Y00585
X0128Y00655
X016314Y008664
X017064Y007964
X017798Y007313
X018478Y009378
X019212Y008727
X021Y0088
Y00775
X0224Y0087
X02255Y01075
X0212
X02025Y0112
X01925Y0116
X01825Y012
X0172Y01235
X015628Y012228
X016328Y011528
X017028Y010828
X017728Y010078
X015614Y009414
X014914Y010114
X014214Y010814
X013514Y011514
X012814Y012214
X013399Y000494
X01366
X007504Y006391
X0075Y00715
X00812Y00812
X00625Y0084
X006151Y007742
X00515Y00955
X004737Y009157
X004Y01065
X003323Y010571
X003Y012
X001909Y011985
X00715Y0122
X00645Y0129
X0072Y013669
X0079Y0143
X008Y016
X0063
X00605Y0142
X0051Y0139
X00445Y01385
X004Y014
X00445Y0132
X00335Y01305
X002Y01335
X0014
X000494Y013399
Y01366
X002Y014
X001434Y0146
X004Y016
X004262Y017428
X006Y018
X005676Y018842
X007091Y020257
X008Y02
Y018
X01
X012
Y02
X014
Y0221
X0152Y0213
X016Y0214
Y0221
X018
X0197
X01985Y0195
X0193Y0197
X0187Y0187
X0181Y0193
X018Y02
X0175Y0187
X017Y019
Y021
X02167Y01972
X02246
X02325
Y01902
X02246Y01883
X02167Y01865
X0208Y0185
X01985Y01755
X01915Y01685
X0187Y0164
X0206Y014
X02135Y01455
X0219Y014
X0229Y0145
X0226Y01505
X02235Y01565
X01625Y0128
X0152Y0132
X0142Y01355
X01305Y01385
X01215Y01435
X01115Y0148
X01015Y0152
X0091Y01555
X0086Y0136
X0093Y0129
X008505Y021671
X01Y0221
X012
X02403Y01972
Y01921
X02482Y01972
X0257Y0187
Y01835
Y018
X0261Y01835
Y0187
X0271Y0196
X02796Y01972
X02876
X02954Y01864
X03033Y01923
X0305Y0162
X02985Y0155
X0285Y0143
X031172Y014178
X031822Y014878
X032572Y015578
X033272Y016278
X033972Y017028
X0339Y0185
X03285Y01815
X03195Y0176
X03125Y0169
X0305Y0134
X029722Y012728
X032586Y012764
X033236Y013464
X033986Y014164
X034686Y014864
X035386Y015614
X036086Y016314
X036836Y017014
X037424Y017798
X038131Y018505
X039061Y018842
X038838Y016384
X03825Y0156
X0375Y0149
X03815Y01425
X0368Y0142
X0361Y01345
X0367Y01285
X0354Y01275
X03815Y0128
X03885Y0135
X037646Y020257
X037Y0198
X03615Y01915
X035422Y018428
X0343Y0198
X03314Y01972
X0323Y0221
X034737
X036251Y021649
X036Y021
X0271Y0177
X0257Y0165
X039545Y017091
X040475Y017428
X04096Y015677
X041889Y016014
X0423Y0148
X043303Y0146
X04355Y01355
X044243Y01366
Y013399
X0414Y0129
X04005Y0143
X04025Y015
X039545Y015677
T02
X01912Y0176
T03
X0245Y0095
X032474Y009313
X031767Y008606
X032474Y007899
X033181Y008606
Y01002
X033889Y009313
Y010727
X034596Y011434
X035303Y012141
X03601Y011434
X035303Y010727
X034596Y01002
X036717Y012141
X03106Y007899
X030353Y007192
X03106Y006485
X031767Y007192
X029292Y004717
X028585Y005424
X0235Y0095
X0215
X0205
X012849Y008727
X013556Y00802
X012849Y007313
X012141Y00802
Y009434
X011434Y008727
Y010141
X010727Y009434
X01002Y010141
Y011556
X009313Y010849
X010727
X009313Y012263
X008606Y011556
X014263Y007313
X01497Y006606
X015677Y005899
X016384Y005192
X015677Y004485
X01497Y005192
X014263Y005899
X013556Y006606
X007899Y012263
Y013677
X007192Y014384
X006485Y013677
X007192Y01297
X004717Y015445
X005424Y016152
X008606Y01297
X03601Y012849
X036717Y013556
X037424Y012849
Y014263
X038131Y01497
X038838Y015677
Y014263
X038131Y013556
X039545Y01497
Y016384
X040252Y015677
T05
X039818Y010487
X040932Y0116
X040097Y012435
X038983Y011322
X038705Y009373
X037869Y010208
X037591Y00826
X036756Y009095
X036478Y007146
X035642Y007981
X035364Y006032
X034529Y006868
X03425Y004919
X033415Y005754
X033137Y003805
X032302Y00464
X012435
X0116Y003805
X011322Y005754
X010487Y004919
X010208Y006868
X009373Y006032
X009095Y007981
X00826Y007146
X007981Y009095
X007146Y00826
X006868Y010208
X006032Y009373
X005754Y011322
X004919Y010487
X00464Y012435
X003805Y0116
X020488Y020734
Y021915
X022063
Y020734
X023638
Y021915
X025213
Y020734
X026787
Y021915
X028362
Y020734
X029937
Y021915
X031512
Y020734
M30
