G04 This is an RS-274x file exported by *
G04 gerbv version 2.6A *
G04 More information is available about gerbv at *
G04 http://gerbv.geda-project.org/ *
G04 --End of header info--*
%MOIN*%
%FSLAX34Y34*%
%IPPOS*%
G04 --Define apertures--*
%ADD10C,0.0050*%
%ADD11C,0.0070*%
%ADD12C,0.0090*%
%ADD13C,0.0080*%
%ADD14C,0.0010*%
%ADD15C,0.0100*%
%ADD16C,0.0300*%
G04 --Start main section--*
G54D10*
G01X0029600Y-007250D02*
G01X0029600Y-007600D01*
G01X0029617Y-007250D02*
G01X0029617Y-007600D01*
G01X0029550Y-007250D02*
G01X0029750Y-007250D01*
G01X0029750Y-007250D02*
G01X0029800Y-007267D01*
G01X0029800Y-007267D02*
G01X0029817Y-007283D01*
G01X0029817Y-007283D02*
G01X0029833Y-007317D01*
G01X0029833Y-007317D02*
G01X0029833Y-007350D01*
G01X0029833Y-007350D02*
G01X0029817Y-007383D01*
G01X0029817Y-007383D02*
G01X0029800Y-007400D01*
G01X0029800Y-007400D02*
G01X0029750Y-007417D01*
G01X0029750Y-007250D02*
G01X0029783Y-007267D01*
G01X0029783Y-007267D02*
G01X0029800Y-007283D01*
G01X0029800Y-007283D02*
G01X0029817Y-007317D01*
G01X0029817Y-007317D02*
G01X0029817Y-007350D01*
G01X0029817Y-007350D02*
G01X0029800Y-007383D01*
G01X0029800Y-007383D02*
G01X0029783Y-007400D01*
G01X0029783Y-007400D02*
G01X0029750Y-007417D01*
G01X0029617Y-007417D02*
G01X0029750Y-007417D01*
G01X0029750Y-007417D02*
G01X0029800Y-007433D01*
G01X0029800Y-007433D02*
G01X0029817Y-007450D01*
G01X0029817Y-007450D02*
G01X0029833Y-007483D01*
G01X0029833Y-007483D02*
G01X0029833Y-007533D01*
G01X0029833Y-007533D02*
G01X0029817Y-007567D01*
G01X0029817Y-007567D02*
G01X0029800Y-007583D01*
G01X0029800Y-007583D02*
G01X0029750Y-007600D01*
G01X0029750Y-007600D02*
G01X0029550Y-007600D01*
G01X0029750Y-007417D02*
G01X0029783Y-007433D01*
G01X0029783Y-007433D02*
G01X0029800Y-007450D01*
G01X0029800Y-007450D02*
G01X0029817Y-007483D01*
G01X0029817Y-007483D02*
G01X0029817Y-007533D01*
G01X0029817Y-007533D02*
G01X0029800Y-007567D01*
G01X0029800Y-007567D02*
G01X0029783Y-007583D01*
G01X0029783Y-007583D02*
G01X0029750Y-007600D01*
G01X0029980Y-007367D02*
G01X0029930Y-007383D01*
G01X0029930Y-007383D02*
G01X0029897Y-007417D01*
G01X0029897Y-007417D02*
G01X0029880Y-007467D01*
G01X0029880Y-007467D02*
G01X0029880Y-007500D01*
G01X0029880Y-007500D02*
G01X0029897Y-007550D01*
G01X0029897Y-007550D02*
G01X0029930Y-007583D01*
G01X0029930Y-007583D02*
G01X0029980Y-007600D01*
G01X0029980Y-007600D02*
G01X0030013Y-007600D01*
G01X0030013Y-007600D02*
G01X0030063Y-007583D01*
G01X0030063Y-007583D02*
G01X0030097Y-007550D01*
G01X0030097Y-007550D02*
G01X0030113Y-007500D01*
G01X0030113Y-007500D02*
G01X0030113Y-007467D01*
G01X0030113Y-007467D02*
G01X0030097Y-007417D01*
G01X0030097Y-007417D02*
G01X0030063Y-007383D01*
G01X0030063Y-007383D02*
G01X0030013Y-007367D01*
G01X0030013Y-007367D02*
G01X0029980Y-007367D01*
G01X0029980Y-007367D02*
G01X0029947Y-007383D01*
G01X0029947Y-007383D02*
G01X0029913Y-007417D01*
G01X0029913Y-007417D02*
G01X0029897Y-007467D01*
G01X0029897Y-007467D02*
G01X0029897Y-007500D01*
G01X0029897Y-007500D02*
G01X0029913Y-007550D01*
G01X0029913Y-007550D02*
G01X0029947Y-007583D01*
G01X0029947Y-007583D02*
G01X0029980Y-007600D01*
G01X0030013Y-007600D02*
G01X0030047Y-007583D01*
G01X0030047Y-007583D02*
G01X0030080Y-007550D01*
G01X0030080Y-007550D02*
G01X0030097Y-007500D01*
G01X0030097Y-007500D02*
G01X0030097Y-007467D01*
G01X0030097Y-007467D02*
G01X0030080Y-007417D01*
G01X0030080Y-007417D02*
G01X0030047Y-007383D01*
G01X0030047Y-007383D02*
G01X0030013Y-007367D01*
G01X0030198Y-007400D02*
G01X0030198Y-007417D01*
G01X0030198Y-007417D02*
G01X0030182Y-007417D01*
G01X0030182Y-007417D02*
G01X0030182Y-007400D01*
G01X0030182Y-007400D02*
G01X0030198Y-007383D01*
G01X0030198Y-007383D02*
G01X0030232Y-007367D01*
G01X0030232Y-007367D02*
G01X0030298Y-007367D01*
G01X0030298Y-007367D02*
G01X0030331Y-007383D01*
G01X0030331Y-007383D02*
G01X0030348Y-007400D01*
G01X0030348Y-007400D02*
G01X0030365Y-007433D01*
G01X0030365Y-007433D02*
G01X0030365Y-007550D01*
G01X0030365Y-007550D02*
G01X0030381Y-007583D01*
G01X0030381Y-007583D02*
G01X0030398Y-007600D01*
G01X0030348Y-007400D02*
G01X0030348Y-007550D01*
G01X0030348Y-007550D02*
G01X0030365Y-007583D01*
G01X0030365Y-007583D02*
G01X0030398Y-007600D01*
G01X0030398Y-007600D02*
G01X0030415Y-007600D01*
G01X0030348Y-007433D02*
G01X0030331Y-007450D01*
G01X0030331Y-007450D02*
G01X0030232Y-007467D01*
G01X0030232Y-007467D02*
G01X0030182Y-007483D01*
G01X0030182Y-007483D02*
G01X0030165Y-007517D01*
G01X0030165Y-007517D02*
G01X0030165Y-007550D01*
G01X0030165Y-007550D02*
G01X0030182Y-007583D01*
G01X0030182Y-007583D02*
G01X0030232Y-007600D01*
G01X0030232Y-007600D02*
G01X0030282Y-007600D01*
G01X0030282Y-007600D02*
G01X0030315Y-007583D01*
G01X0030315Y-007583D02*
G01X0030348Y-007550D01*
G01X0030232Y-007467D02*
G01X0030198Y-007483D01*
G01X0030198Y-007483D02*
G01X0030182Y-007517D01*
G01X0030182Y-007517D02*
G01X0030182Y-007550D01*
G01X0030182Y-007550D02*
G01X0030198Y-007583D01*
G01X0030198Y-007583D02*
G01X0030232Y-007600D01*
G01X0030515Y-007367D02*
G01X0030515Y-007600D01*
G01X0030531Y-007367D02*
G01X0030531Y-007600D01*
G01X0030531Y-007467D02*
G01X0030548Y-007417D01*
G01X0030548Y-007417D02*
G01X0030581Y-007383D01*
G01X0030581Y-007383D02*
G01X0030615Y-007367D01*
G01X0030615Y-007367D02*
G01X0030665Y-007367D01*
G01X0030665Y-007367D02*
G01X0030681Y-007383D01*
G01X0030681Y-007383D02*
G01X0030681Y-007400D01*
G01X0030681Y-007400D02*
G01X0030665Y-007417D01*
G01X0030665Y-007417D02*
G01X0030648Y-007400D01*
G01X0030648Y-007400D02*
G01X0030665Y-007383D01*
G01X0030465Y-007367D02*
G01X0030531Y-007367D01*
G01X0030465Y-007600D02*
G01X0030581Y-007600D01*
G01X0030935Y-007250D02*
G01X0030935Y-007600D01*
G01X0030951Y-007250D02*
G01X0030951Y-007600D01*
G01X0030935Y-007417D02*
G01X0030901Y-007383D01*
G01X0030901Y-007383D02*
G01X0030868Y-007367D01*
G01X0030868Y-007367D02*
G01X0030835Y-007367D01*
G01X0030835Y-007367D02*
G01X0030785Y-007383D01*
G01X0030785Y-007383D02*
G01X0030751Y-007417D01*
G01X0030751Y-007417D02*
G01X0030735Y-007467D01*
G01X0030735Y-007467D02*
G01X0030735Y-007500D01*
G01X0030735Y-007500D02*
G01X0030751Y-007550D01*
G01X0030751Y-007550D02*
G01X0030785Y-007583D01*
G01X0030785Y-007583D02*
G01X0030835Y-007600D01*
G01X0030835Y-007600D02*
G01X0030868Y-007600D01*
G01X0030868Y-007600D02*
G01X0030901Y-007583D01*
G01X0030901Y-007583D02*
G01X0030935Y-007550D01*
G01X0030835Y-007367D02*
G01X0030801Y-007383D01*
G01X0030801Y-007383D02*
G01X0030768Y-007417D01*
G01X0030768Y-007417D02*
G01X0030751Y-007467D01*
G01X0030751Y-007467D02*
G01X0030751Y-007500D01*
G01X0030751Y-007500D02*
G01X0030768Y-007550D01*
G01X0030768Y-007550D02*
G01X0030801Y-007583D01*
G01X0030801Y-007583D02*
G01X0030835Y-007600D01*
G01X0030885Y-007250D02*
G01X0030951Y-007250D01*
G01X0030935Y-007600D02*
G01X0031001Y-007600D01*
G01X0031481Y-007250D02*
G01X0031431Y-007267D01*
G01X0031431Y-007267D02*
G01X0031398Y-007300D01*
G01X0031398Y-007300D02*
G01X0031381Y-007333D01*
G01X0031381Y-007333D02*
G01X0031365Y-007400D01*
G01X0031365Y-007400D02*
G01X0031365Y-007450D01*
G01X0031365Y-007450D02*
G01X0031381Y-007517D01*
G01X0031381Y-007517D02*
G01X0031398Y-007550D01*
G01X0031398Y-007550D02*
G01X0031431Y-007583D01*
G01X0031431Y-007583D02*
G01X0031481Y-007600D01*
G01X0031481Y-007600D02*
G01X0031515Y-007600D01*
G01X0031515Y-007600D02*
G01X0031565Y-007583D01*
G01X0031565Y-007583D02*
G01X0031598Y-007550D01*
G01X0031598Y-007550D02*
G01X0031615Y-007517D01*
G01X0031615Y-007517D02*
G01X0031631Y-007450D01*
G01X0031631Y-007450D02*
G01X0031631Y-007400D01*
G01X0031631Y-007400D02*
G01X0031615Y-007333D01*
G01X0031615Y-007333D02*
G01X0031598Y-007300D01*
G01X0031598Y-007300D02*
G01X0031565Y-007267D01*
G01X0031565Y-007267D02*
G01X0031515Y-007250D01*
G01X0031515Y-007250D02*
G01X0031481Y-007250D01*
G01X0031481Y-007250D02*
G01X0031448Y-007267D01*
G01X0031448Y-007267D02*
G01X0031415Y-007300D01*
G01X0031415Y-007300D02*
G01X0031398Y-007333D01*
G01X0031398Y-007333D02*
G01X0031381Y-007400D01*
G01X0031381Y-007400D02*
G01X0031381Y-007450D01*
G01X0031381Y-007450D02*
G01X0031398Y-007517D01*
G01X0031398Y-007517D02*
G01X0031415Y-007550D01*
G01X0031415Y-007550D02*
G01X0031448Y-007583D01*
G01X0031448Y-007583D02*
G01X0031481Y-007600D01*
G01X0031515Y-007600D02*
G01X0031548Y-007583D01*
G01X0031548Y-007583D02*
G01X0031581Y-007550D01*
G01X0031581Y-007550D02*
G01X0031598Y-007517D01*
G01X0031598Y-007517D02*
G01X0031615Y-007450D01*
G01X0031615Y-007450D02*
G01X0031615Y-007400D01*
G01X0031615Y-007400D02*
G01X0031598Y-007333D01*
G01X0031598Y-007333D02*
G01X0031581Y-007300D01*
G01X0031581Y-007300D02*
G01X0031548Y-007267D01*
G01X0031548Y-007267D02*
G01X0031515Y-007250D01*
G01X0031730Y-007367D02*
G01X0031730Y-007550D01*
G01X0031730Y-007550D02*
G01X0031746Y-007583D01*
G01X0031746Y-007583D02*
G01X0031796Y-007600D01*
G01X0031796Y-007600D02*
G01X0031830Y-007600D01*
G01X0031830Y-007600D02*
G01X0031879Y-007583D01*
G01X0031879Y-007583D02*
G01X0031913Y-007550D01*
G01X0031746Y-007367D02*
G01X0031746Y-007550D01*
G01X0031746Y-007550D02*
G01X0031763Y-007583D01*
G01X0031763Y-007583D02*
G01X0031796Y-007600D01*
G01X0031913Y-007367D02*
G01X0031913Y-007600D01*
G01X0031929Y-007367D02*
G01X0031929Y-007600D01*
G01X0031680Y-007367D02*
G01X0031746Y-007367D01*
G01X0031863Y-007367D02*
G01X0031929Y-007367D01*
G01X0031913Y-007600D02*
G01X0031979Y-007600D01*
G01X0032124Y-007600D02*
G01X0032108Y-007583D01*
G01X0032108Y-007583D02*
G01X0032091Y-007533D01*
G01X0032091Y-007533D02*
G01X0032091Y-007250D01*
G01X0032091Y-007250D02*
G01X0032074Y-007250D01*
G01X0032074Y-007250D02*
G01X0032074Y-007533D01*
G01X0032074Y-007533D02*
G01X0032091Y-007583D01*
G01X0032091Y-007583D02*
G01X0032124Y-007600D01*
G01X0032124Y-007600D02*
G01X0032158Y-007600D01*
G01X0032158Y-007600D02*
G01X0032191Y-007583D01*
G01X0032191Y-007583D02*
G01X0032208Y-007550D01*
G01X0032024Y-007367D02*
G01X0032158Y-007367D01*
G01X0032314Y-007250D02*
G01X0032314Y-007600D01*
G01X0032331Y-007250D02*
G01X0032331Y-007600D01*
G01X0032264Y-007250D02*
G01X0032331Y-007250D01*
G01X0032264Y-007600D02*
G01X0032381Y-007600D01*
G01X0032494Y-007250D02*
G01X0032478Y-007267D01*
G01X0032478Y-007267D02*
G01X0032494Y-007283D01*
G01X0032494Y-007283D02*
G01X0032511Y-007267D01*
G01X0032511Y-007267D02*
G01X0032494Y-007250D01*
G01X0032494Y-007367D02*
G01X0032494Y-007600D01*
G01X0032511Y-007367D02*
G01X0032511Y-007600D01*
G01X0032444Y-007367D02*
G01X0032511Y-007367D01*
G01X0032444Y-007600D02*
G01X0032561Y-007600D01*
G01X0032674Y-007367D02*
G01X0032674Y-007600D01*
G01X0032691Y-007367D02*
G01X0032691Y-007600D01*
G01X0032691Y-007417D02*
G01X0032724Y-007383D01*
G01X0032724Y-007383D02*
G01X0032774Y-007367D01*
G01X0032774Y-007367D02*
G01X0032808Y-007367D01*
G01X0032808Y-007367D02*
G01X0032858Y-007383D01*
G01X0032858Y-007383D02*
G01X0032874Y-007417D01*
G01X0032874Y-007417D02*
G01X0032874Y-007600D01*
G01X0032808Y-007367D02*
G01X0032841Y-007383D01*
G01X0032841Y-007383D02*
G01X0032858Y-007417D01*
G01X0032858Y-007417D02*
G01X0032858Y-007600D01*
G01X0032624Y-007367D02*
G01X0032691Y-007367D01*
G01X0032624Y-007600D02*
G01X0032741Y-007600D01*
G01X0032808Y-007600D02*
G01X0032924Y-007600D01*
G01X0032986Y-007467D02*
G01X0033186Y-007467D01*
G01X0033186Y-007467D02*
G01X0033186Y-007433D01*
G01X0033186Y-007433D02*
G01X0033169Y-007400D01*
G01X0033169Y-007400D02*
G01X0033153Y-007383D01*
G01X0033153Y-007383D02*
G01X0033119Y-007367D01*
G01X0033119Y-007367D02*
G01X0033069Y-007367D01*
G01X0033069Y-007367D02*
G01X0033019Y-007383D01*
G01X0033019Y-007383D02*
G01X0032986Y-007417D01*
G01X0032986Y-007417D02*
G01X0032969Y-007467D01*
G01X0032969Y-007467D02*
G01X0032969Y-007500D01*
G01X0032969Y-007500D02*
G01X0032986Y-007550D01*
G01X0032986Y-007550D02*
G01X0033019Y-007583D01*
G01X0033019Y-007583D02*
G01X0033069Y-007600D01*
G01X0033069Y-007600D02*
G01X0033103Y-007600D01*
G01X0033103Y-007600D02*
G01X0033153Y-007583D01*
G01X0033153Y-007583D02*
G01X0033186Y-007550D01*
G01X0033169Y-007467D02*
G01X0033169Y-007417D01*
G01X0033169Y-007417D02*
G01X0033153Y-007383D01*
G01X0033069Y-007367D02*
G01X0033036Y-007383D01*
G01X0033036Y-007383D02*
G01X0033003Y-007417D01*
G01X0033003Y-007417D02*
G01X0032986Y-007467D01*
G01X0032986Y-007467D02*
G01X0032986Y-007500D01*
G01X0032986Y-007500D02*
G01X0033003Y-007550D01*
G01X0033003Y-007550D02*
G01X0033036Y-007583D01*
G01X0033036Y-007583D02*
G01X0033069Y-007600D01*
G01X0000000Y-003000D02*
G01X0034500Y-003000D01*
G01X0015500Y-008750D02*
G01X0015500Y-007500D01*
G01X0008550Y-008750D02*
G01X0008550Y-007500D01*
G01X0034500Y-008750D02*
G01X0034500Y-003000D01*
G01X0029300Y-008750D02*
G01X0029300Y-003000D01*
G01X0000000Y-008750D02*
G01X0000000Y-003000D01*
G01X0000000Y-008750D02*
G01X0034500Y-008750D01*
G01X0007000Y-005000D02*
G01X0024000Y-005000D01*
G01X0000000Y-007500D02*
G01X0024000Y-007500D01*
G01X0024000Y-008750D02*
G01X0024000Y-003000D01*
G01X0000000Y-006250D02*
G01X0024000Y-006250D01*
G01X0000000Y-005000D02*
G01X0007000Y-005000D01*
G54D12*
G01X-010114Y-015500D02*
G01X-010114Y-016271D01*
G01X-009772Y-016537D02*
G01X-009729Y-016623D01*
G01X-009729Y-016623D02*
G01X-009600Y-016751D01*
G01X-009600Y-016751D02*
G01X-010500Y-016751D01*
G01X-010414Y-017240D02*
G01X-010457Y-017197D01*
G01X-010457Y-017197D02*
G01X-010500Y-017240D01*
G01X-010500Y-017240D02*
G01X-010457Y-017282D01*
G01X-010457Y-017282D02*
G01X-010414Y-017240D01*
G01X-009600Y-017737D02*
G01X-009643Y-017608D01*
G01X-009643Y-017608D02*
G01X-009772Y-017522D01*
G01X-009772Y-017522D02*
G01X-009986Y-017480D01*
G01X-009986Y-017480D02*
G01X-010114Y-017480D01*
G01X-010114Y-017480D02*
G01X-010329Y-017522D01*
G01X-010329Y-017522D02*
G01X-010457Y-017608D01*
G01X-010457Y-017608D02*
G01X-010500Y-017737D01*
G01X-010500Y-017737D02*
G01X-010500Y-017822D01*
G01X-010500Y-017822D02*
G01X-010457Y-017951D01*
G01X-010457Y-017951D02*
G01X-010329Y-018037D01*
G01X-010329Y-018037D02*
G01X-010114Y-018079D01*
G01X-010114Y-018079D02*
G01X-009986Y-018079D01*
G01X-009986Y-018079D02*
G01X-009772Y-018037D01*
G01X-009772Y-018037D02*
G01X-009643Y-017951D01*
G01X-009643Y-017951D02*
G01X-009600Y-017822D01*
G01X-009600Y-017822D02*
G01X-009600Y-017737D01*
G01X-018050Y-010113D02*
G01X-017279Y-010113D01*
G01X-017013Y-009770D02*
G01X-016927Y-009727D01*
G01X-016927Y-009727D02*
G01X-016799Y-009599D01*
G01X-016799Y-009599D02*
G01X-016799Y-010498D01*
G01X-016310Y-010413D02*
G01X-016353Y-010456D01*
G01X-016353Y-010456D02*
G01X-016310Y-010498D01*
G01X-016310Y-010498D02*
G01X-016268Y-010456D01*
G01X-016268Y-010456D02*
G01X-016310Y-010413D01*
G01X-015813Y-009599D02*
G01X-015942Y-009641D01*
G01X-015942Y-009641D02*
G01X-016028Y-009770D01*
G01X-016028Y-009770D02*
G01X-016070Y-009984D01*
G01X-016070Y-009984D02*
G01X-016070Y-010113D01*
G01X-016070Y-010113D02*
G01X-016028Y-010327D01*
G01X-016028Y-010327D02*
G01X-015942Y-010456D01*
G01X-015942Y-010456D02*
G01X-015813Y-010498D01*
G01X-015813Y-010498D02*
G01X-015728Y-010498D01*
G01X-015728Y-010498D02*
G01X-015599Y-010456D01*
G01X-015599Y-010456D02*
G01X-015513Y-010327D01*
G01X-015513Y-010327D02*
G01X-015471Y-010113D01*
G01X-015471Y-010113D02*
G01X-015471Y-009984D01*
G01X-015471Y-009984D02*
G01X-015513Y-009770D01*
G01X-015513Y-009770D02*
G01X-015599Y-009641D01*
G01X-015599Y-009641D02*
G01X-015728Y-009599D01*
G01X-015728Y-009599D02*
G01X-015813Y-009599D01*
G01X-016893Y0000401D02*
G01X-017021Y0000359D01*
G01X-017021Y0000359D02*
G01X-017107Y0000230D01*
G01X-017107Y0000230D02*
G01X-017150Y0000016D01*
G01X-017150Y0000016D02*
G01X-017150Y-000113D01*
G01X-017150Y-000113D02*
G01X-017107Y-000327D01*
G01X-017107Y-000327D02*
G01X-017021Y-000456D01*
G01X-017021Y-000456D02*
G01X-016893Y-000498D01*
G01X-016893Y-000498D02*
G01X-016807Y-000498D01*
G01X-016807Y-000498D02*
G01X-016679Y-000456D01*
G01X-016679Y-000456D02*
G01X-016593Y-000327D01*
G01X-016593Y-000327D02*
G01X-016550Y-000113D01*
G01X-016550Y-000113D02*
G01X-016550Y0000016D01*
G01X-016550Y0000016D02*
G01X-016593Y0000230D01*
G01X-016593Y0000230D02*
G01X-016679Y0000359D01*
G01X-016679Y0000359D02*
G01X-016807Y0000401D01*
G01X-016807Y0000401D02*
G01X-016893Y0000401D01*
G01X-016306Y-000413D02*
G01X-016349Y-000456D01*
G01X-016349Y-000456D02*
G01X-016306Y-000498D01*
G01X-016306Y-000498D02*
G01X-016263Y-000456D01*
G01X-016263Y-000456D02*
G01X-016306Y-000413D01*
G01X-015809Y0000401D02*
G01X-015937Y0000359D01*
G01X-015937Y0000359D02*
G01X-016023Y0000230D01*
G01X-016023Y0000230D02*
G01X-016066Y0000016D01*
G01X-016066Y0000016D02*
G01X-016066Y-000113D01*
G01X-016066Y-000113D02*
G01X-016023Y-000327D01*
G01X-016023Y-000327D02*
G01X-015937Y-000456D01*
G01X-015937Y-000456D02*
G01X-015809Y-000498D01*
G01X-015809Y-000498D02*
G01X-015723Y-000498D01*
G01X-015723Y-000498D02*
G01X-015595Y-000456D01*
G01X-015595Y-000456D02*
G01X-015509Y-000327D01*
G01X-015509Y-000327D02*
G01X-015466Y-000113D01*
G01X-015466Y-000113D02*
G01X-015466Y0000016D01*
G01X-015466Y0000016D02*
G01X-015509Y0000230D01*
G01X-015509Y0000230D02*
G01X-015595Y0000359D01*
G01X-015595Y0000359D02*
G01X-015723Y0000401D01*
G01X-015723Y0000401D02*
G01X-015809Y0000401D01*
G01X0000400Y-015757D02*
G01X0000357Y-015629D01*
G01X0000357Y-015629D02*
G01X0000228Y-015543D01*
G01X0000228Y-015543D02*
G01X0000014Y-015500D01*
G01X0000014Y-015500D02*
G01X-000114Y-015500D01*
G01X-000114Y-015500D02*
G01X-000329Y-015543D01*
G01X-000329Y-015543D02*
G01X-000457Y-015629D01*
G01X-000457Y-015629D02*
G01X-000500Y-015757D01*
G01X-000500Y-015757D02*
G01X-000500Y-015843D01*
G01X-000500Y-015843D02*
G01X-000457Y-015971D01*
G01X-000457Y-015971D02*
G01X-000329Y-016057D01*
G01X-000329Y-016057D02*
G01X-000114Y-016100D01*
G01X-000114Y-016100D02*
G01X0000014Y-016100D01*
G01X0000014Y-016100D02*
G01X0000228Y-016057D01*
G01X0000228Y-016057D02*
G01X0000357Y-015971D01*
G01X0000357Y-015971D02*
G01X0000400Y-015843D01*
G01X0000400Y-015843D02*
G01X0000400Y-015757D01*
G01X-000414Y-016344D02*
G01X-000457Y-016301D01*
G01X-000457Y-016301D02*
G01X-000500Y-016344D01*
G01X-000500Y-016344D02*
G01X-000457Y-016387D01*
G01X-000457Y-016387D02*
G01X-000414Y-016344D01*
G01X0000400Y-016841D02*
G01X0000357Y-016713D01*
G01X0000357Y-016713D02*
G01X0000228Y-016627D01*
G01X0000228Y-016627D02*
G01X0000014Y-016584D01*
G01X0000014Y-016584D02*
G01X-000114Y-016584D01*
G01X-000114Y-016584D02*
G01X-000329Y-016627D01*
G01X-000329Y-016627D02*
G01X-000457Y-016713D01*
G01X-000457Y-016713D02*
G01X-000500Y-016841D01*
G01X-000500Y-016841D02*
G01X-000500Y-016927D01*
G01X-000500Y-016927D02*
G01X-000457Y-017055D01*
G01X-000457Y-017055D02*
G01X-000329Y-017141D01*
G01X-000329Y-017141D02*
G01X-000114Y-017184D01*
G01X-000114Y-017184D02*
G01X0000014Y-017184D01*
G01X0000014Y-017184D02*
G01X0000228Y-017141D01*
G01X0000228Y-017141D02*
G01X0000357Y-017055D01*
G01X0000357Y-017055D02*
G01X0000400Y-016927D01*
G01X0000400Y-016927D02*
G01X0000400Y-016841D01*
G01X0130228Y-015500D02*
G01X0130271Y-015586D01*
G01X0130271Y-015586D02*
G01X0130400Y-015714D01*
G01X0130400Y-015714D02*
G01X0129500Y-015714D01*
G01X0130400Y-016246D02*
G01X0130400Y-016717D01*
G01X0130400Y-016717D02*
G01X0130057Y-016460D01*
G01X0130057Y-016460D02*
G01X0130057Y-016588D01*
G01X0130057Y-016588D02*
G01X0130014Y-016674D01*
G01X0130014Y-016674D02*
G01X0129971Y-016717D01*
G01X0129971Y-016717D02*
G01X0129843Y-016760D01*
G01X0129843Y-016760D02*
G01X0129757Y-016760D01*
G01X0129757Y-016760D02*
G01X0129629Y-016717D01*
G01X0129629Y-016717D02*
G01X0129543Y-016631D01*
G01X0129543Y-016631D02*
G01X0129500Y-016503D01*
G01X0129500Y-016503D02*
G01X0129500Y-016374D01*
G01X0129500Y-016374D02*
G01X0129543Y-016246D01*
G01X0129543Y-016246D02*
G01X0129586Y-016203D01*
G01X0129586Y-016203D02*
G01X0129671Y-016160D01*
G01X0129586Y-017004D02*
G01X0129543Y-016961D01*
G01X0129543Y-016961D02*
G01X0129500Y-017004D01*
G01X0129500Y-017004D02*
G01X0129543Y-017047D01*
G01X0129543Y-017047D02*
G01X0129586Y-017004D01*
G01X0130400Y-017501D02*
G01X0130357Y-017372D01*
G01X0130357Y-017372D02*
G01X0130228Y-017287D01*
G01X0130228Y-017287D02*
G01X0130014Y-017244D01*
G01X0130014Y-017244D02*
G01X0129886Y-017244D01*
G01X0129886Y-017244D02*
G01X0129671Y-017287D01*
G01X0129671Y-017287D02*
G01X0129543Y-017372D01*
G01X0129543Y-017372D02*
G01X0129500Y-017501D01*
G01X0129500Y-017501D02*
G01X0129500Y-017587D01*
G01X0129500Y-017587D02*
G01X0129543Y-017715D01*
G01X0129543Y-017715D02*
G01X0129671Y-017801D01*
G01X0129671Y-017801D02*
G01X0129886Y-017844D01*
G01X0129886Y-017844D02*
G01X0130014Y-017844D01*
G01X0130014Y-017844D02*
G01X0130228Y-017801D01*
G01X0130228Y-017801D02*
G01X0130357Y-017715D01*
G01X0130357Y-017715D02*
G01X0130400Y-017587D01*
G01X0130400Y-017587D02*
G01X0130400Y-017501D01*
G01X0120228Y-015500D02*
G01X0120271Y-015586D01*
G01X0120271Y-015586D02*
G01X0120400Y-015714D01*
G01X0120400Y-015714D02*
G01X0119500Y-015714D01*
G01X0120186Y-016203D02*
G01X0120228Y-016203D01*
G01X0120228Y-016203D02*
G01X0120314Y-016246D01*
G01X0120314Y-016246D02*
G01X0120357Y-016288D01*
G01X0120357Y-016288D02*
G01X0120400Y-016374D01*
G01X0120400Y-016374D02*
G01X0120400Y-016545D01*
G01X0120400Y-016545D02*
G01X0120357Y-016631D01*
G01X0120357Y-016631D02*
G01X0120314Y-016674D01*
G01X0120314Y-016674D02*
G01X0120228Y-016717D01*
G01X0120228Y-016717D02*
G01X0120143Y-016717D01*
G01X0120143Y-016717D02*
G01X0120057Y-016674D01*
G01X0120057Y-016674D02*
G01X0119928Y-016588D01*
G01X0119928Y-016588D02*
G01X0119500Y-016160D01*
G01X0119500Y-016160D02*
G01X0119500Y-016760D01*
G01X0119586Y-017004D02*
G01X0119543Y-016961D01*
G01X0119543Y-016961D02*
G01X0119500Y-017004D01*
G01X0119500Y-017004D02*
G01X0119543Y-017047D01*
G01X0119543Y-017047D02*
G01X0119586Y-017004D01*
G01X0120400Y-017501D02*
G01X0120357Y-017372D01*
G01X0120357Y-017372D02*
G01X0120228Y-017287D01*
G01X0120228Y-017287D02*
G01X0120014Y-017244D01*
G01X0120014Y-017244D02*
G01X0119886Y-017244D01*
G01X0119886Y-017244D02*
G01X0119671Y-017287D01*
G01X0119671Y-017287D02*
G01X0119543Y-017372D01*
G01X0119543Y-017372D02*
G01X0119500Y-017501D01*
G01X0119500Y-017501D02*
G01X0119500Y-017587D01*
G01X0119500Y-017587D02*
G01X0119543Y-017715D01*
G01X0119543Y-017715D02*
G01X0119671Y-017801D01*
G01X0119671Y-017801D02*
G01X0119886Y-017844D01*
G01X0119886Y-017844D02*
G01X0120014Y-017844D01*
G01X0120014Y-017844D02*
G01X0120228Y-017801D01*
G01X0120228Y-017801D02*
G01X0120357Y-017715D01*
G01X0120357Y-017715D02*
G01X0120400Y-017587D01*
G01X0120400Y-017587D02*
G01X0120400Y-017501D01*
G01X0110228Y-015500D02*
G01X0110271Y-015586D01*
G01X0110271Y-015586D02*
G01X0110400Y-015714D01*
G01X0110400Y-015714D02*
G01X0109500Y-015714D01*
G01X0110228Y-016160D02*
G01X0110271Y-016246D01*
G01X0110271Y-016246D02*
G01X0110400Y-016374D01*
G01X0110400Y-016374D02*
G01X0109500Y-016374D01*
G01X0109586Y-016863D02*
G01X0109543Y-016820D01*
G01X0109543Y-016820D02*
G01X0109500Y-016863D01*
G01X0109500Y-016863D02*
G01X0109543Y-016905D01*
G01X0109543Y-016905D02*
G01X0109586Y-016863D01*
G01X0110400Y-017360D02*
G01X0110357Y-017231D01*
G01X0110357Y-017231D02*
G01X0110228Y-017145D01*
G01X0110228Y-017145D02*
G01X0110014Y-017103D01*
G01X0110014Y-017103D02*
G01X0109886Y-017103D01*
G01X0109886Y-017103D02*
G01X0109671Y-017145D01*
G01X0109671Y-017145D02*
G01X0109543Y-017231D01*
G01X0109543Y-017231D02*
G01X0109500Y-017360D01*
G01X0109500Y-017360D02*
G01X0109500Y-017445D01*
G01X0109500Y-017445D02*
G01X0109543Y-017574D01*
G01X0109543Y-017574D02*
G01X0109671Y-017660D01*
G01X0109671Y-017660D02*
G01X0109886Y-017702D01*
G01X0109886Y-017702D02*
G01X0110014Y-017702D01*
G01X0110014Y-017702D02*
G01X0110228Y-017660D01*
G01X0110228Y-017660D02*
G01X0110357Y-017574D01*
G01X0110357Y-017574D02*
G01X0110400Y-017445D01*
G01X0110400Y-017445D02*
G01X0110400Y-017360D01*
G01X0100228Y-015500D02*
G01X0100271Y-015586D01*
G01X0100271Y-015586D02*
G01X0100400Y-015714D01*
G01X0100400Y-015714D02*
G01X0099500Y-015714D01*
G01X0100400Y-016417D02*
G01X0100357Y-016288D01*
G01X0100357Y-016288D02*
G01X0100228Y-016203D01*
G01X0100228Y-016203D02*
G01X0100014Y-016160D01*
G01X0100014Y-016160D02*
G01X0099886Y-016160D01*
G01X0099886Y-016160D02*
G01X0099671Y-016203D01*
G01X0099671Y-016203D02*
G01X0099543Y-016288D01*
G01X0099543Y-016288D02*
G01X0099500Y-016417D01*
G01X0099500Y-016417D02*
G01X0099500Y-016503D01*
G01X0099500Y-016503D02*
G01X0099543Y-016631D01*
G01X0099543Y-016631D02*
G01X0099671Y-016717D01*
G01X0099671Y-016717D02*
G01X0099886Y-016760D01*
G01X0099886Y-016760D02*
G01X0100014Y-016760D01*
G01X0100014Y-016760D02*
G01X0100228Y-016717D01*
G01X0100228Y-016717D02*
G01X0100357Y-016631D01*
G01X0100357Y-016631D02*
G01X0100400Y-016503D01*
G01X0100400Y-016503D02*
G01X0100400Y-016417D01*
G01X0099586Y-017004D02*
G01X0099543Y-016961D01*
G01X0099543Y-016961D02*
G01X0099500Y-017004D01*
G01X0099500Y-017004D02*
G01X0099543Y-017047D01*
G01X0099543Y-017047D02*
G01X0099586Y-017004D01*
G01X0100400Y-017501D02*
G01X0100357Y-017372D01*
G01X0100357Y-017372D02*
G01X0100228Y-017287D01*
G01X0100228Y-017287D02*
G01X0100014Y-017244D01*
G01X0100014Y-017244D02*
G01X0099886Y-017244D01*
G01X0099886Y-017244D02*
G01X0099671Y-017287D01*
G01X0099671Y-017287D02*
G01X0099543Y-017372D01*
G01X0099543Y-017372D02*
G01X0099500Y-017501D01*
G01X0099500Y-017501D02*
G01X0099500Y-017587D01*
G01X0099500Y-017587D02*
G01X0099543Y-017715D01*
G01X0099543Y-017715D02*
G01X0099671Y-017801D01*
G01X0099671Y-017801D02*
G01X0099886Y-017844D01*
G01X0099886Y-017844D02*
G01X0100014Y-017844D01*
G01X0100014Y-017844D02*
G01X0100228Y-017801D01*
G01X0100228Y-017801D02*
G01X0100357Y-017715D01*
G01X0100357Y-017715D02*
G01X0100400Y-017587D01*
G01X0100400Y-017587D02*
G01X0100400Y-017501D01*
G01X-016693Y0090100D02*
G01X-016736Y0089971D01*
G01X-016736Y0089971D02*
G01X-016822Y0089886D01*
G01X-016822Y0089886D02*
G01X-016950Y0089843D01*
G01X-016950Y0089843D02*
G01X-016993Y0089843D01*
G01X-016993Y0089843D02*
G01X-017121Y0089886D01*
G01X-017121Y0089886D02*
G01X-017207Y0089971D01*
G01X-017207Y0089971D02*
G01X-017250Y0090100D01*
G01X-017250Y0090100D02*
G01X-017250Y0090143D01*
G01X-017250Y0090143D02*
G01X-017207Y0090271D01*
G01X-017207Y0090271D02*
G01X-017121Y0090357D01*
G01X-017121Y0090357D02*
G01X-016993Y0090400D01*
G01X-016993Y0090400D02*
G01X-016950Y0090400D01*
G01X-016950Y0090400D02*
G01X-016822Y0090357D01*
G01X-016822Y0090357D02*
G01X-016736Y0090271D01*
G01X-016736Y0090271D02*
G01X-016693Y0090100D01*
G01X-016693Y0090100D02*
G01X-016693Y0089886D01*
G01X-016693Y0089886D02*
G01X-016736Y0089671D01*
G01X-016736Y0089671D02*
G01X-016822Y0089543D01*
G01X-016822Y0089543D02*
G01X-016950Y0089500D01*
G01X-016950Y0089500D02*
G01X-017036Y0089500D01*
G01X-017036Y0089500D02*
G01X-017164Y0089543D01*
G01X-017164Y0089543D02*
G01X-017207Y0089629D01*
G01X-016406Y0089586D02*
G01X-016449Y0089543D01*
G01X-016449Y0089543D02*
G01X-016406Y0089500D01*
G01X-016406Y0089500D02*
G01X-016363Y0089543D01*
G01X-016363Y0089543D02*
G01X-016406Y0089586D01*
G01X-015909Y0090400D02*
G01X-016037Y0090357D01*
G01X-016037Y0090357D02*
G01X-016123Y0090228D01*
G01X-016123Y0090228D02*
G01X-016166Y0090014D01*
G01X-016166Y0090014D02*
G01X-016166Y0089886D01*
G01X-016166Y0089886D02*
G01X-016123Y0089671D01*
G01X-016123Y0089671D02*
G01X-016037Y0089543D01*
G01X-016037Y0089543D02*
G01X-015909Y0089500D01*
G01X-015909Y0089500D02*
G01X-015823Y0089500D01*
G01X-015823Y0089500D02*
G01X-015695Y0089543D01*
G01X-015695Y0089543D02*
G01X-015609Y0089671D01*
G01X-015609Y0089671D02*
G01X-015566Y0089886D01*
G01X-015566Y0089886D02*
G01X-015566Y0090014D01*
G01X-015566Y0090014D02*
G01X-015609Y0090228D01*
G01X-015609Y0090228D02*
G01X-015695Y0090357D01*
G01X-015695Y0090357D02*
G01X-015823Y0090400D01*
G01X-015823Y0090400D02*
G01X-015909Y0090400D01*
G01X-017036Y0080400D02*
G01X-017164Y0080357D01*
G01X-017164Y0080357D02*
G01X-017207Y0080271D01*
G01X-017207Y0080271D02*
G01X-017207Y0080186D01*
G01X-017207Y0080186D02*
G01X-017164Y0080100D01*
G01X-017164Y0080100D02*
G01X-017079Y0080057D01*
G01X-017079Y0080057D02*
G01X-016907Y0080014D01*
G01X-016907Y0080014D02*
G01X-016779Y0079971D01*
G01X-016779Y0079971D02*
G01X-016693Y0079886D01*
G01X-016693Y0079886D02*
G01X-016650Y0079800D01*
G01X-016650Y0079800D02*
G01X-016650Y0079671D01*
G01X-016650Y0079671D02*
G01X-016693Y0079586D01*
G01X-016693Y0079586D02*
G01X-016736Y0079543D01*
G01X-016736Y0079543D02*
G01X-016864Y0079500D01*
G01X-016864Y0079500D02*
G01X-017036Y0079500D01*
G01X-017036Y0079500D02*
G01X-017164Y0079543D01*
G01X-017164Y0079543D02*
G01X-017207Y0079586D01*
G01X-017207Y0079586D02*
G01X-017250Y0079671D01*
G01X-017250Y0079671D02*
G01X-017250Y0079800D01*
G01X-017250Y0079800D02*
G01X-017207Y0079886D01*
G01X-017207Y0079886D02*
G01X-017121Y0079971D01*
G01X-017121Y0079971D02*
G01X-016993Y0080014D01*
G01X-016993Y0080014D02*
G01X-016822Y0080057D01*
G01X-016822Y0080057D02*
G01X-016736Y0080100D01*
G01X-016736Y0080100D02*
G01X-016693Y0080186D01*
G01X-016693Y0080186D02*
G01X-016693Y0080271D01*
G01X-016693Y0080271D02*
G01X-016736Y0080357D01*
G01X-016736Y0080357D02*
G01X-016864Y0080400D01*
G01X-016864Y0080400D02*
G01X-017036Y0080400D01*
G01X-016406Y0079586D02*
G01X-016449Y0079543D01*
G01X-016449Y0079543D02*
G01X-016406Y0079500D01*
G01X-016406Y0079500D02*
G01X-016363Y0079543D01*
G01X-016363Y0079543D02*
G01X-016406Y0079586D01*
G01X-015909Y0080400D02*
G01X-016037Y0080357D01*
G01X-016037Y0080357D02*
G01X-016123Y0080228D01*
G01X-016123Y0080228D02*
G01X-016166Y0080014D01*
G01X-016166Y0080014D02*
G01X-016166Y0079886D01*
G01X-016166Y0079886D02*
G01X-016123Y0079671D01*
G01X-016123Y0079671D02*
G01X-016037Y0079543D01*
G01X-016037Y0079543D02*
G01X-015909Y0079500D01*
G01X-015909Y0079500D02*
G01X-015823Y0079500D01*
G01X-015823Y0079500D02*
G01X-015695Y0079543D01*
G01X-015695Y0079543D02*
G01X-015609Y0079671D01*
G01X-015609Y0079671D02*
G01X-015566Y0079886D01*
G01X-015566Y0079886D02*
G01X-015566Y0080014D01*
G01X-015566Y0080014D02*
G01X-015609Y0080228D01*
G01X-015609Y0080228D02*
G01X-015695Y0080357D01*
G01X-015695Y0080357D02*
G01X-015823Y0080400D01*
G01X-015823Y0080400D02*
G01X-015909Y0080400D01*
G01X-016650Y0070400D02*
G01X-017079Y0069500D01*
G01X-017250Y0070400D02*
G01X-016650Y0070400D01*
G01X-016406Y0069586D02*
G01X-016449Y0069543D01*
G01X-016449Y0069543D02*
G01X-016406Y0069500D01*
G01X-016406Y0069500D02*
G01X-016363Y0069543D01*
G01X-016363Y0069543D02*
G01X-016406Y0069586D01*
G01X-015909Y0070400D02*
G01X-016037Y0070357D01*
G01X-016037Y0070357D02*
G01X-016123Y0070228D01*
G01X-016123Y0070228D02*
G01X-016166Y0070014D01*
G01X-016166Y0070014D02*
G01X-016166Y0069886D01*
G01X-016166Y0069886D02*
G01X-016123Y0069671D01*
G01X-016123Y0069671D02*
G01X-016037Y0069543D01*
G01X-016037Y0069543D02*
G01X-015909Y0069500D01*
G01X-015909Y0069500D02*
G01X-015823Y0069500D01*
G01X-015823Y0069500D02*
G01X-015695Y0069543D01*
G01X-015695Y0069543D02*
G01X-015609Y0069671D01*
G01X-015609Y0069671D02*
G01X-015566Y0069886D01*
G01X-015566Y0069886D02*
G01X-015566Y0070014D01*
G01X-015566Y0070014D02*
G01X-015609Y0070228D01*
G01X-015609Y0070228D02*
G01X-015695Y0070357D01*
G01X-015695Y0070357D02*
G01X-015823Y0070400D01*
G01X-015823Y0070400D02*
G01X-015909Y0070400D01*
G01X0090100Y-016057D02*
G01X0089971Y-016014D01*
G01X0089971Y-016014D02*
G01X0089886Y-015928D01*
G01X0089886Y-015928D02*
G01X0089843Y-015800D01*
G01X0089843Y-015800D02*
G01X0089843Y-015757D01*
G01X0089843Y-015757D02*
G01X0089886Y-015629D01*
G01X0089886Y-015629D02*
G01X0089971Y-015543D01*
G01X0089971Y-015543D02*
G01X0090100Y-015500D01*
G01X0090100Y-015500D02*
G01X0090143Y-015500D01*
G01X0090143Y-015500D02*
G01X0090271Y-015543D01*
G01X0090271Y-015543D02*
G01X0090357Y-015629D01*
G01X0090357Y-015629D02*
G01X0090400Y-015757D01*
G01X0090400Y-015757D02*
G01X0090400Y-015800D01*
G01X0090400Y-015800D02*
G01X0090357Y-015928D01*
G01X0090357Y-015928D02*
G01X0090271Y-016014D01*
G01X0090271Y-016014D02*
G01X0090100Y-016057D01*
G01X0090100Y-016057D02*
G01X0089886Y-016057D01*
G01X0089886Y-016057D02*
G01X0089671Y-016014D01*
G01X0089671Y-016014D02*
G01X0089543Y-015928D01*
G01X0089543Y-015928D02*
G01X0089500Y-015800D01*
G01X0089500Y-015800D02*
G01X0089500Y-015714D01*
G01X0089500Y-015714D02*
G01X0089543Y-015586D01*
G01X0089543Y-015586D02*
G01X0089629Y-015543D01*
G01X0089586Y-016344D02*
G01X0089543Y-016301D01*
G01X0089543Y-016301D02*
G01X0089500Y-016344D01*
G01X0089500Y-016344D02*
G01X0089543Y-016387D01*
G01X0089543Y-016387D02*
G01X0089586Y-016344D01*
G01X0090400Y-016841D02*
G01X0090357Y-016713D01*
G01X0090357Y-016713D02*
G01X0090228Y-016627D01*
G01X0090228Y-016627D02*
G01X0090014Y-016584D01*
G01X0090014Y-016584D02*
G01X0089886Y-016584D01*
G01X0089886Y-016584D02*
G01X0089671Y-016627D01*
G01X0089671Y-016627D02*
G01X0089543Y-016713D01*
G01X0089543Y-016713D02*
G01X0089500Y-016841D01*
G01X0089500Y-016841D02*
G01X0089500Y-016927D01*
G01X0089500Y-016927D02*
G01X0089543Y-017055D01*
G01X0089543Y-017055D02*
G01X0089671Y-017141D01*
G01X0089671Y-017141D02*
G01X0089886Y-017184D01*
G01X0089886Y-017184D02*
G01X0090014Y-017184D01*
G01X0090014Y-017184D02*
G01X0090228Y-017141D01*
G01X0090228Y-017141D02*
G01X0090357Y-017055D01*
G01X0090357Y-017055D02*
G01X0090400Y-016927D01*
G01X0090400Y-016927D02*
G01X0090400Y-016841D01*
G01X0080400Y-015714D02*
G01X0080357Y-015586D01*
G01X0080357Y-015586D02*
G01X0080271Y-015543D01*
G01X0080271Y-015543D02*
G01X0080186Y-015543D01*
G01X0080186Y-015543D02*
G01X0080100Y-015586D01*
G01X0080100Y-015586D02*
G01X0080057Y-015671D01*
G01X0080057Y-015671D02*
G01X0080014Y-015843D01*
G01X0080014Y-015843D02*
G01X0079971Y-015971D01*
G01X0079971Y-015971D02*
G01X0079886Y-016057D01*
G01X0079886Y-016057D02*
G01X0079800Y-016100D01*
G01X0079800Y-016100D02*
G01X0079671Y-016100D01*
G01X0079671Y-016100D02*
G01X0079586Y-016057D01*
G01X0079586Y-016057D02*
G01X0079543Y-016014D01*
G01X0079543Y-016014D02*
G01X0079500Y-015886D01*
G01X0079500Y-015886D02*
G01X0079500Y-015714D01*
G01X0079500Y-015714D02*
G01X0079543Y-015586D01*
G01X0079543Y-015586D02*
G01X0079586Y-015543D01*
G01X0079586Y-015543D02*
G01X0079671Y-015500D01*
G01X0079671Y-015500D02*
G01X0079800Y-015500D01*
G01X0079800Y-015500D02*
G01X0079886Y-015543D01*
G01X0079886Y-015543D02*
G01X0079971Y-015629D01*
G01X0079971Y-015629D02*
G01X0080014Y-015757D01*
G01X0080014Y-015757D02*
G01X0080057Y-015928D01*
G01X0080057Y-015928D02*
G01X0080100Y-016014D01*
G01X0080100Y-016014D02*
G01X0080186Y-016057D01*
G01X0080186Y-016057D02*
G01X0080271Y-016057D01*
G01X0080271Y-016057D02*
G01X0080357Y-016014D01*
G01X0080357Y-016014D02*
G01X0080400Y-015886D01*
G01X0080400Y-015886D02*
G01X0080400Y-015714D01*
G01X0079586Y-016344D02*
G01X0079543Y-016301D01*
G01X0079543Y-016301D02*
G01X0079500Y-016344D01*
G01X0079500Y-016344D02*
G01X0079543Y-016387D01*
G01X0079543Y-016387D02*
G01X0079586Y-016344D01*
G01X0080400Y-016841D02*
G01X0080357Y-016713D01*
G01X0080357Y-016713D02*
G01X0080228Y-016627D01*
G01X0080228Y-016627D02*
G01X0080014Y-016584D01*
G01X0080014Y-016584D02*
G01X0079886Y-016584D01*
G01X0079886Y-016584D02*
G01X0079671Y-016627D01*
G01X0079671Y-016627D02*
G01X0079543Y-016713D01*
G01X0079543Y-016713D02*
G01X0079500Y-016841D01*
G01X0079500Y-016841D02*
G01X0079500Y-016927D01*
G01X0079500Y-016927D02*
G01X0079543Y-017055D01*
G01X0079543Y-017055D02*
G01X0079671Y-017141D01*
G01X0079671Y-017141D02*
G01X0079886Y-017184D01*
G01X0079886Y-017184D02*
G01X0080014Y-017184D01*
G01X0080014Y-017184D02*
G01X0080228Y-017141D01*
G01X0080228Y-017141D02*
G01X0080357Y-017055D01*
G01X0080357Y-017055D02*
G01X0080400Y-016927D01*
G01X0080400Y-016927D02*
G01X0080400Y-016841D01*
G01X0070400Y-016100D02*
G01X0069500Y-015671D01*
G01X0070400Y-015500D02*
G01X0070400Y-016100D01*
G01X0069586Y-016344D02*
G01X0069543Y-016301D01*
G01X0069543Y-016301D02*
G01X0069500Y-016344D01*
G01X0069500Y-016344D02*
G01X0069543Y-016387D01*
G01X0069543Y-016387D02*
G01X0069586Y-016344D01*
G01X0070400Y-016841D02*
G01X0070357Y-016713D01*
G01X0070357Y-016713D02*
G01X0070228Y-016627D01*
G01X0070228Y-016627D02*
G01X0070014Y-016584D01*
G01X0070014Y-016584D02*
G01X0069886Y-016584D01*
G01X0069886Y-016584D02*
G01X0069671Y-016627D01*
G01X0069671Y-016627D02*
G01X0069543Y-016713D01*
G01X0069543Y-016713D02*
G01X0069500Y-016841D01*
G01X0069500Y-016841D02*
G01X0069500Y-016927D01*
G01X0069500Y-016927D02*
G01X0069543Y-017055D01*
G01X0069543Y-017055D02*
G01X0069671Y-017141D01*
G01X0069671Y-017141D02*
G01X0069886Y-017184D01*
G01X0069886Y-017184D02*
G01X0070014Y-017184D01*
G01X0070014Y-017184D02*
G01X0070228Y-017141D01*
G01X0070228Y-017141D02*
G01X0070357Y-017055D01*
G01X0070357Y-017055D02*
G01X0070400Y-016927D01*
G01X0070400Y-016927D02*
G01X0070400Y-016841D01*
G01X-012600Y-011375D02*
G01X-013029Y-011718D01*
G01X-013029Y-011718D02*
G01X-013500Y-011718D01*
G01X-012600Y-012061D02*
G01X-013029Y-011718D01*
G01X-011875Y-012600D02*
G01X-011275Y-013500D01*
G01X-011275Y-012600D02*
G01X-011875Y-013500D01*
G01X0050400Y-016014D02*
G01X0050400Y-015586D01*
G01X0050400Y-015586D02*
G01X0050014Y-015543D01*
G01X0050014Y-015543D02*
G01X0050057Y-015586D01*
G01X0050057Y-015586D02*
G01X0050100Y-015714D01*
G01X0050100Y-015714D02*
G01X0050100Y-015843D01*
G01X0050100Y-015843D02*
G01X0050057Y-015971D01*
G01X0050057Y-015971D02*
G01X0049971Y-016057D01*
G01X0049971Y-016057D02*
G01X0049843Y-016100D01*
G01X0049843Y-016100D02*
G01X0049757Y-016100D01*
G01X0049757Y-016100D02*
G01X0049629Y-016057D01*
G01X0049629Y-016057D02*
G01X0049543Y-015971D01*
G01X0049543Y-015971D02*
G01X0049500Y-015843D01*
G01X0049500Y-015843D02*
G01X0049500Y-015714D01*
G01X0049500Y-015714D02*
G01X0049543Y-015586D01*
G01X0049543Y-015586D02*
G01X0049586Y-015543D01*
G01X0049586Y-015543D02*
G01X0049671Y-015500D01*
G01X0049586Y-016344D02*
G01X0049543Y-016301D01*
G01X0049543Y-016301D02*
G01X0049500Y-016344D01*
G01X0049500Y-016344D02*
G01X0049543Y-016387D01*
G01X0049543Y-016387D02*
G01X0049586Y-016344D01*
G01X0050400Y-016841D02*
G01X0050357Y-016713D01*
G01X0050357Y-016713D02*
G01X0050228Y-016627D01*
G01X0050228Y-016627D02*
G01X0050014Y-016584D01*
G01X0050014Y-016584D02*
G01X0049886Y-016584D01*
G01X0049886Y-016584D02*
G01X0049671Y-016627D01*
G01X0049671Y-016627D02*
G01X0049543Y-016713D01*
G01X0049543Y-016713D02*
G01X0049500Y-016841D01*
G01X0049500Y-016841D02*
G01X0049500Y-016927D01*
G01X0049500Y-016927D02*
G01X0049543Y-017055D01*
G01X0049543Y-017055D02*
G01X0049671Y-017141D01*
G01X0049671Y-017141D02*
G01X0049886Y-017184D01*
G01X0049886Y-017184D02*
G01X0050014Y-017184D01*
G01X0050014Y-017184D02*
G01X0050228Y-017141D01*
G01X0050228Y-017141D02*
G01X0050357Y-017055D01*
G01X0050357Y-017055D02*
G01X0050400Y-016927D01*
G01X0050400Y-016927D02*
G01X0050400Y-016841D01*
G01X0030400Y-015586D02*
G01X0030400Y-016057D01*
G01X0030400Y-016057D02*
G01X0030057Y-015800D01*
G01X0030057Y-015800D02*
G01X0030057Y-015928D01*
G01X0030057Y-015928D02*
G01X0030014Y-016014D01*
G01X0030014Y-016014D02*
G01X0029971Y-016057D01*
G01X0029971Y-016057D02*
G01X0029843Y-016100D01*
G01X0029843Y-016100D02*
G01X0029757Y-016100D01*
G01X0029757Y-016100D02*
G01X0029629Y-016057D01*
G01X0029629Y-016057D02*
G01X0029543Y-015971D01*
G01X0029543Y-015971D02*
G01X0029500Y-015843D01*
G01X0029500Y-015843D02*
G01X0029500Y-015714D01*
G01X0029500Y-015714D02*
G01X0029543Y-015586D01*
G01X0029543Y-015586D02*
G01X0029586Y-015543D01*
G01X0029586Y-015543D02*
G01X0029671Y-015500D01*
G01X0029586Y-016344D02*
G01X0029543Y-016301D01*
G01X0029543Y-016301D02*
G01X0029500Y-016344D01*
G01X0029500Y-016344D02*
G01X0029543Y-016387D01*
G01X0029543Y-016387D02*
G01X0029586Y-016344D01*
G01X0030400Y-016841D02*
G01X0030357Y-016713D01*
G01X0030357Y-016713D02*
G01X0030228Y-016627D01*
G01X0030228Y-016627D02*
G01X0030014Y-016584D01*
G01X0030014Y-016584D02*
G01X0029886Y-016584D01*
G01X0029886Y-016584D02*
G01X0029671Y-016627D01*
G01X0029671Y-016627D02*
G01X0029543Y-016713D01*
G01X0029543Y-016713D02*
G01X0029500Y-016841D01*
G01X0029500Y-016841D02*
G01X0029500Y-016927D01*
G01X0029500Y-016927D02*
G01X0029543Y-017055D01*
G01X0029543Y-017055D02*
G01X0029671Y-017141D01*
G01X0029671Y-017141D02*
G01X0029886Y-017184D01*
G01X0029886Y-017184D02*
G01X0030014Y-017184D01*
G01X0030014Y-017184D02*
G01X0030228Y-017141D01*
G01X0030228Y-017141D02*
G01X0030357Y-017055D01*
G01X0030357Y-017055D02*
G01X0030400Y-016927D01*
G01X0030400Y-016927D02*
G01X0030400Y-016841D01*
G01X0010228Y-015500D02*
G01X0010271Y-015586D01*
G01X0010271Y-015586D02*
G01X0010400Y-015714D01*
G01X0010400Y-015714D02*
G01X0009500Y-015714D01*
G01X0009586Y-016203D02*
G01X0009543Y-016160D01*
G01X0009543Y-016160D02*
G01X0009500Y-016203D01*
G01X0009500Y-016203D02*
G01X0009543Y-016246D01*
G01X0009543Y-016246D02*
G01X0009586Y-016203D01*
G01X0010400Y-016700D02*
G01X0010357Y-016571D01*
G01X0010357Y-016571D02*
G01X0010228Y-016486D01*
G01X0010228Y-016486D02*
G01X0010014Y-016443D01*
G01X0010014Y-016443D02*
G01X0009886Y-016443D01*
G01X0009886Y-016443D02*
G01X0009671Y-016486D01*
G01X0009671Y-016486D02*
G01X0009543Y-016571D01*
G01X0009543Y-016571D02*
G01X0009500Y-016700D01*
G01X0009500Y-016700D02*
G01X0009500Y-016785D01*
G01X0009500Y-016785D02*
G01X0009543Y-016914D01*
G01X0009543Y-016914D02*
G01X0009671Y-017000D01*
G01X0009671Y-017000D02*
G01X0009886Y-017043D01*
G01X0009886Y-017043D02*
G01X0010014Y-017043D01*
G01X0010014Y-017043D02*
G01X0010228Y-017000D01*
G01X0010228Y-017000D02*
G01X0010357Y-016914D01*
G01X0010357Y-016914D02*
G01X0010400Y-016785D01*
G01X0010400Y-016785D02*
G01X0010400Y-016700D01*
G01X0020186Y-015543D02*
G01X0020228Y-015543D01*
G01X0020228Y-015543D02*
G01X0020314Y-015586D01*
G01X0020314Y-015586D02*
G01X0020357Y-015629D01*
G01X0020357Y-015629D02*
G01X0020400Y-015714D01*
G01X0020400Y-015714D02*
G01X0020400Y-015886D01*
G01X0020400Y-015886D02*
G01X0020357Y-015971D01*
G01X0020357Y-015971D02*
G01X0020314Y-016014D01*
G01X0020314Y-016014D02*
G01X0020228Y-016057D01*
G01X0020228Y-016057D02*
G01X0020143Y-016057D01*
G01X0020143Y-016057D02*
G01X0020057Y-016014D01*
G01X0020057Y-016014D02*
G01X0019928Y-015928D01*
G01X0019928Y-015928D02*
G01X0019500Y-015500D01*
G01X0019500Y-015500D02*
G01X0019500Y-016100D01*
G01X0019586Y-016344D02*
G01X0019543Y-016301D01*
G01X0019543Y-016301D02*
G01X0019500Y-016344D01*
G01X0019500Y-016344D02*
G01X0019543Y-016387D01*
G01X0019543Y-016387D02*
G01X0019586Y-016344D01*
G01X0020400Y-016841D02*
G01X0020357Y-016713D01*
G01X0020357Y-016713D02*
G01X0020228Y-016627D01*
G01X0020228Y-016627D02*
G01X0020014Y-016584D01*
G01X0020014Y-016584D02*
G01X0019886Y-016584D01*
G01X0019886Y-016584D02*
G01X0019671Y-016627D01*
G01X0019671Y-016627D02*
G01X0019543Y-016713D01*
G01X0019543Y-016713D02*
G01X0019500Y-016841D01*
G01X0019500Y-016841D02*
G01X0019500Y-016927D01*
G01X0019500Y-016927D02*
G01X0019543Y-017055D01*
G01X0019543Y-017055D02*
G01X0019671Y-017141D01*
G01X0019671Y-017141D02*
G01X0019886Y-017184D01*
G01X0019886Y-017184D02*
G01X0020014Y-017184D01*
G01X0020014Y-017184D02*
G01X0020228Y-017141D01*
G01X0020228Y-017141D02*
G01X0020357Y-017055D01*
G01X0020357Y-017055D02*
G01X0020400Y-016927D01*
G01X0020400Y-016927D02*
G01X0020400Y-016841D01*
G01X0040400Y-015928D02*
G01X0039800Y-015500D01*
G01X0039800Y-015500D02*
G01X0039800Y-016143D01*
G01X0040400Y-015928D02*
G01X0039500Y-015928D01*
G01X0039586Y-016344D02*
G01X0039543Y-016301D01*
G01X0039543Y-016301D02*
G01X0039500Y-016344D01*
G01X0039500Y-016344D02*
G01X0039543Y-016387D01*
G01X0039543Y-016387D02*
G01X0039586Y-016344D01*
G01X0040400Y-016841D02*
G01X0040357Y-016713D01*
G01X0040357Y-016713D02*
G01X0040228Y-016627D01*
G01X0040228Y-016627D02*
G01X0040014Y-016584D01*
G01X0040014Y-016584D02*
G01X0039886Y-016584D01*
G01X0039886Y-016584D02*
G01X0039671Y-016627D01*
G01X0039671Y-016627D02*
G01X0039543Y-016713D01*
G01X0039543Y-016713D02*
G01X0039500Y-016841D01*
G01X0039500Y-016841D02*
G01X0039500Y-016927D01*
G01X0039500Y-016927D02*
G01X0039543Y-017055D01*
G01X0039543Y-017055D02*
G01X0039671Y-017141D01*
G01X0039671Y-017141D02*
G01X0039886Y-017184D01*
G01X0039886Y-017184D02*
G01X0040014Y-017184D01*
G01X0040014Y-017184D02*
G01X0040228Y-017141D01*
G01X0040228Y-017141D02*
G01X0040357Y-017055D01*
G01X0040357Y-017055D02*
G01X0040400Y-016927D01*
G01X0040400Y-016927D02*
G01X0040400Y-016841D01*
G01X0060271Y-016014D02*
G01X0060357Y-015971D01*
G01X0060357Y-015971D02*
G01X0060400Y-015843D01*
G01X0060400Y-015843D02*
G01X0060400Y-015757D01*
G01X0060400Y-015757D02*
G01X0060357Y-015629D01*
G01X0060357Y-015629D02*
G01X0060228Y-015543D01*
G01X0060228Y-015543D02*
G01X0060014Y-015500D01*
G01X0060014Y-015500D02*
G01X0059800Y-015500D01*
G01X0059800Y-015500D02*
G01X0059629Y-015543D01*
G01X0059629Y-015543D02*
G01X0059543Y-015629D01*
G01X0059543Y-015629D02*
G01X0059500Y-015757D01*
G01X0059500Y-015757D02*
G01X0059500Y-015800D01*
G01X0059500Y-015800D02*
G01X0059543Y-015928D01*
G01X0059543Y-015928D02*
G01X0059629Y-016014D01*
G01X0059629Y-016014D02*
G01X0059757Y-016057D01*
G01X0059757Y-016057D02*
G01X0059800Y-016057D01*
G01X0059800Y-016057D02*
G01X0059928Y-016014D01*
G01X0059928Y-016014D02*
G01X0060014Y-015928D01*
G01X0060014Y-015928D02*
G01X0060057Y-015800D01*
G01X0060057Y-015800D02*
G01X0060057Y-015757D01*
G01X0060057Y-015757D02*
G01X0060014Y-015629D01*
G01X0060014Y-015629D02*
G01X0059928Y-015543D01*
G01X0059928Y-015543D02*
G01X0059800Y-015500D01*
G01X0059586Y-016297D02*
G01X0059543Y-016254D01*
G01X0059543Y-016254D02*
G01X0059500Y-016297D01*
G01X0059500Y-016297D02*
G01X0059543Y-016340D01*
G01X0059543Y-016340D02*
G01X0059586Y-016297D01*
G01X0060400Y-016794D02*
G01X0060357Y-016665D01*
G01X0060357Y-016665D02*
G01X0060228Y-016580D01*
G01X0060228Y-016580D02*
G01X0060014Y-016537D01*
G01X0060014Y-016537D02*
G01X0059886Y-016537D01*
G01X0059886Y-016537D02*
G01X0059671Y-016580D01*
G01X0059671Y-016580D02*
G01X0059543Y-016665D01*
G01X0059543Y-016665D02*
G01X0059500Y-016794D01*
G01X0059500Y-016794D02*
G01X0059500Y-016880D01*
G01X0059500Y-016880D02*
G01X0059543Y-017008D01*
G01X0059543Y-017008D02*
G01X0059671Y-017094D01*
G01X0059671Y-017094D02*
G01X0059886Y-017137D01*
G01X0059886Y-017137D02*
G01X0060014Y-017137D01*
G01X0060014Y-017137D02*
G01X0060228Y-017094D01*
G01X0060228Y-017094D02*
G01X0060357Y-017008D01*
G01X0060357Y-017008D02*
G01X0060400Y-016880D01*
G01X0060400Y-016880D02*
G01X0060400Y-016794D01*
G01X-016736Y0050400D02*
G01X-017164Y0050400D01*
G01X-017164Y0050400D02*
G01X-017207Y0050014D01*
G01X-017207Y0050014D02*
G01X-017164Y0050057D01*
G01X-017164Y0050057D02*
G01X-017036Y0050100D01*
G01X-017036Y0050100D02*
G01X-016907Y0050100D01*
G01X-016907Y0050100D02*
G01X-016779Y0050057D01*
G01X-016779Y0050057D02*
G01X-016693Y0049971D01*
G01X-016693Y0049971D02*
G01X-016650Y0049843D01*
G01X-016650Y0049843D02*
G01X-016650Y0049757D01*
G01X-016650Y0049757D02*
G01X-016693Y0049629D01*
G01X-016693Y0049629D02*
G01X-016779Y0049543D01*
G01X-016779Y0049543D02*
G01X-016907Y0049500D01*
G01X-016907Y0049500D02*
G01X-017036Y0049500D01*
G01X-017036Y0049500D02*
G01X-017164Y0049543D01*
G01X-017164Y0049543D02*
G01X-017207Y0049586D01*
G01X-017207Y0049586D02*
G01X-017250Y0049671D01*
G01X-016406Y0049586D02*
G01X-016449Y0049543D01*
G01X-016449Y0049543D02*
G01X-016406Y0049500D01*
G01X-016406Y0049500D02*
G01X-016363Y0049543D01*
G01X-016363Y0049543D02*
G01X-016406Y0049586D01*
G01X-015909Y0050400D02*
G01X-016037Y0050357D01*
G01X-016037Y0050357D02*
G01X-016123Y0050228D01*
G01X-016123Y0050228D02*
G01X-016166Y0050014D01*
G01X-016166Y0050014D02*
G01X-016166Y0049886D01*
G01X-016166Y0049886D02*
G01X-016123Y0049671D01*
G01X-016123Y0049671D02*
G01X-016037Y0049543D01*
G01X-016037Y0049543D02*
G01X-015909Y0049500D01*
G01X-015909Y0049500D02*
G01X-015823Y0049500D01*
G01X-015823Y0049500D02*
G01X-015695Y0049543D01*
G01X-015695Y0049543D02*
G01X-015609Y0049671D01*
G01X-015609Y0049671D02*
G01X-015566Y0049886D01*
G01X-015566Y0049886D02*
G01X-015566Y0050014D01*
G01X-015566Y0050014D02*
G01X-015609Y0050228D01*
G01X-015609Y0050228D02*
G01X-015695Y0050357D01*
G01X-015695Y0050357D02*
G01X-015823Y0050400D01*
G01X-015823Y0050400D02*
G01X-015909Y0050400D01*
G01X-017164Y0030400D02*
G01X-016693Y0030400D01*
G01X-016693Y0030400D02*
G01X-016950Y0030057D01*
G01X-016950Y0030057D02*
G01X-016822Y0030057D01*
G01X-016822Y0030057D02*
G01X-016736Y0030014D01*
G01X-016736Y0030014D02*
G01X-016693Y0029971D01*
G01X-016693Y0029971D02*
G01X-016650Y0029843D01*
G01X-016650Y0029843D02*
G01X-016650Y0029757D01*
G01X-016650Y0029757D02*
G01X-016693Y0029629D01*
G01X-016693Y0029629D02*
G01X-016779Y0029543D01*
G01X-016779Y0029543D02*
G01X-016907Y0029500D01*
G01X-016907Y0029500D02*
G01X-017036Y0029500D01*
G01X-017036Y0029500D02*
G01X-017164Y0029543D01*
G01X-017164Y0029543D02*
G01X-017207Y0029586D01*
G01X-017207Y0029586D02*
G01X-017250Y0029671D01*
G01X-016406Y0029586D02*
G01X-016449Y0029543D01*
G01X-016449Y0029543D02*
G01X-016406Y0029500D01*
G01X-016406Y0029500D02*
G01X-016363Y0029543D01*
G01X-016363Y0029543D02*
G01X-016406Y0029586D01*
G01X-015909Y0030400D02*
G01X-016037Y0030357D01*
G01X-016037Y0030357D02*
G01X-016123Y0030228D01*
G01X-016123Y0030228D02*
G01X-016166Y0030014D01*
G01X-016166Y0030014D02*
G01X-016166Y0029886D01*
G01X-016166Y0029886D02*
G01X-016123Y0029671D01*
G01X-016123Y0029671D02*
G01X-016037Y0029543D01*
G01X-016037Y0029543D02*
G01X-015909Y0029500D01*
G01X-015909Y0029500D02*
G01X-015823Y0029500D01*
G01X-015823Y0029500D02*
G01X-015695Y0029543D01*
G01X-015695Y0029543D02*
G01X-015609Y0029671D01*
G01X-015609Y0029671D02*
G01X-015566Y0029886D01*
G01X-015566Y0029886D02*
G01X-015566Y0030014D01*
G01X-015566Y0030014D02*
G01X-015609Y0030228D01*
G01X-015609Y0030228D02*
G01X-015695Y0030357D01*
G01X-015695Y0030357D02*
G01X-015823Y0030400D01*
G01X-015823Y0030400D02*
G01X-015909Y0030400D01*
G01X-017000Y0010228D02*
G01X-016914Y0010271D01*
G01X-016914Y0010271D02*
G01X-016786Y0010400D01*
G01X-016786Y0010400D02*
G01X-016786Y0009500D01*
G01X-016297Y0009586D02*
G01X-016340Y0009543D01*
G01X-016340Y0009543D02*
G01X-016297Y0009500D01*
G01X-016297Y0009500D02*
G01X-016254Y0009543D01*
G01X-016254Y0009543D02*
G01X-016297Y0009586D01*
G01X-015800Y0010400D02*
G01X-015929Y0010357D01*
G01X-015929Y0010357D02*
G01X-016014Y0010228D01*
G01X-016014Y0010228D02*
G01X-016057Y0010014D01*
G01X-016057Y0010014D02*
G01X-016057Y0009886D01*
G01X-016057Y0009886D02*
G01X-016014Y0009671D01*
G01X-016014Y0009671D02*
G01X-015929Y0009543D01*
G01X-015929Y0009543D02*
G01X-015800Y0009500D01*
G01X-015800Y0009500D02*
G01X-015715Y0009500D01*
G01X-015715Y0009500D02*
G01X-015586Y0009543D01*
G01X-015586Y0009543D02*
G01X-015500Y0009671D01*
G01X-015500Y0009671D02*
G01X-015457Y0009886D01*
G01X-015457Y0009886D02*
G01X-015457Y0010014D01*
G01X-015457Y0010014D02*
G01X-015500Y0010228D01*
G01X-015500Y0010228D02*
G01X-015586Y0010357D01*
G01X-015586Y0010357D02*
G01X-015715Y0010400D01*
G01X-015715Y0010400D02*
G01X-015800Y0010400D01*
G01X-017207Y0020186D02*
G01X-017207Y0020228D01*
G01X-017207Y0020228D02*
G01X-017164Y0020314D01*
G01X-017164Y0020314D02*
G01X-017121Y0020357D01*
G01X-017121Y0020357D02*
G01X-017036Y0020400D01*
G01X-017036Y0020400D02*
G01X-016864Y0020400D01*
G01X-016864Y0020400D02*
G01X-016779Y0020357D01*
G01X-016779Y0020357D02*
G01X-016736Y0020314D01*
G01X-016736Y0020314D02*
G01X-016693Y0020228D01*
G01X-016693Y0020228D02*
G01X-016693Y0020143D01*
G01X-016693Y0020143D02*
G01X-016736Y0020057D01*
G01X-016736Y0020057D02*
G01X-016822Y0019928D01*
G01X-016822Y0019928D02*
G01X-017250Y0019500D01*
G01X-017250Y0019500D02*
G01X-016650Y0019500D01*
G01X-016406Y0019586D02*
G01X-016449Y0019543D01*
G01X-016449Y0019543D02*
G01X-016406Y0019500D01*
G01X-016406Y0019500D02*
G01X-016363Y0019543D01*
G01X-016363Y0019543D02*
G01X-016406Y0019586D01*
G01X-015909Y0020400D02*
G01X-016037Y0020357D01*
G01X-016037Y0020357D02*
G01X-016123Y0020228D01*
G01X-016123Y0020228D02*
G01X-016166Y0020014D01*
G01X-016166Y0020014D02*
G01X-016166Y0019886D01*
G01X-016166Y0019886D02*
G01X-016123Y0019671D01*
G01X-016123Y0019671D02*
G01X-016037Y0019543D01*
G01X-016037Y0019543D02*
G01X-015909Y0019500D01*
G01X-015909Y0019500D02*
G01X-015823Y0019500D01*
G01X-015823Y0019500D02*
G01X-015695Y0019543D01*
G01X-015695Y0019543D02*
G01X-015609Y0019671D01*
G01X-015609Y0019671D02*
G01X-015566Y0019886D01*
G01X-015566Y0019886D02*
G01X-015566Y0020014D01*
G01X-015566Y0020014D02*
G01X-015609Y0020228D01*
G01X-015609Y0020228D02*
G01X-015695Y0020357D01*
G01X-015695Y0020357D02*
G01X-015823Y0020400D01*
G01X-015823Y0020400D02*
G01X-015909Y0020400D01*
G01X-016822Y0040400D02*
G01X-017250Y0039800D01*
G01X-017250Y0039800D02*
G01X-016607Y0039800D01*
G01X-016822Y0040400D02*
G01X-016822Y0039500D01*
G01X-016406Y0039586D02*
G01X-016449Y0039543D01*
G01X-016449Y0039543D02*
G01X-016406Y0039500D01*
G01X-016406Y0039500D02*
G01X-016363Y0039543D01*
G01X-016363Y0039543D02*
G01X-016406Y0039586D01*
G01X-015909Y0040400D02*
G01X-016037Y0040357D01*
G01X-016037Y0040357D02*
G01X-016123Y0040228D01*
G01X-016123Y0040228D02*
G01X-016166Y0040014D01*
G01X-016166Y0040014D02*
G01X-016166Y0039886D01*
G01X-016166Y0039886D02*
G01X-016123Y0039671D01*
G01X-016123Y0039671D02*
G01X-016037Y0039543D01*
G01X-016037Y0039543D02*
G01X-015909Y0039500D01*
G01X-015909Y0039500D02*
G01X-015823Y0039500D01*
G01X-015823Y0039500D02*
G01X-015695Y0039543D01*
G01X-015695Y0039543D02*
G01X-015609Y0039671D01*
G01X-015609Y0039671D02*
G01X-015566Y0039886D01*
G01X-015566Y0039886D02*
G01X-015566Y0040014D01*
G01X-015566Y0040014D02*
G01X-015609Y0040228D01*
G01X-015609Y0040228D02*
G01X-015695Y0040357D01*
G01X-015695Y0040357D02*
G01X-015823Y0040400D01*
G01X-015823Y0040400D02*
G01X-015909Y0040400D01*
G01X-016736Y0060271D02*
G01X-016779Y0060357D01*
G01X-016779Y0060357D02*
G01X-016907Y0060400D01*
G01X-016907Y0060400D02*
G01X-016993Y0060400D01*
G01X-016993Y0060400D02*
G01X-017121Y0060357D01*
G01X-017121Y0060357D02*
G01X-017207Y0060228D01*
G01X-017207Y0060228D02*
G01X-017250Y0060014D01*
G01X-017250Y0060014D02*
G01X-017250Y0059800D01*
G01X-017250Y0059800D02*
G01X-017207Y0059629D01*
G01X-017207Y0059629D02*
G01X-017121Y0059543D01*
G01X-017121Y0059543D02*
G01X-016993Y0059500D01*
G01X-016993Y0059500D02*
G01X-016950Y0059500D01*
G01X-016950Y0059500D02*
G01X-016822Y0059543D01*
G01X-016822Y0059543D02*
G01X-016736Y0059629D01*
G01X-016736Y0059629D02*
G01X-016693Y0059757D01*
G01X-016693Y0059757D02*
G01X-016693Y0059800D01*
G01X-016693Y0059800D02*
G01X-016736Y0059928D01*
G01X-016736Y0059928D02*
G01X-016822Y0060014D01*
G01X-016822Y0060014D02*
G01X-016950Y0060057D01*
G01X-016950Y0060057D02*
G01X-016993Y0060057D01*
G01X-016993Y0060057D02*
G01X-017121Y0060014D01*
G01X-017121Y0060014D02*
G01X-017207Y0059928D01*
G01X-017207Y0059928D02*
G01X-017250Y0059800D01*
G01X-016453Y0059586D02*
G01X-016496Y0059543D01*
G01X-016496Y0059543D02*
G01X-016453Y0059500D01*
G01X-016453Y0059500D02*
G01X-016410Y0059543D01*
G01X-016410Y0059543D02*
G01X-016453Y0059586D01*
G01X-015956Y0060400D02*
G01X-016085Y0060357D01*
G01X-016085Y0060357D02*
G01X-016170Y0060228D01*
G01X-016170Y0060228D02*
G01X-016213Y0060014D01*
G01X-016213Y0060014D02*
G01X-016213Y0059886D01*
G01X-016213Y0059886D02*
G01X-016170Y0059671D01*
G01X-016170Y0059671D02*
G01X-016085Y0059543D01*
G01X-016085Y0059543D02*
G01X-015956Y0059500D01*
G01X-015956Y0059500D02*
G01X-015870Y0059500D01*
G01X-015870Y0059500D02*
G01X-015742Y0059543D01*
G01X-015742Y0059543D02*
G01X-015656Y0059671D01*
G01X-015656Y0059671D02*
G01X-015613Y0059886D01*
G01X-015613Y0059886D02*
G01X-015613Y0060014D01*
G01X-015613Y0060014D02*
G01X-015656Y0060228D01*
G01X-015656Y0060228D02*
G01X-015742Y0060357D01*
G01X-015742Y0060357D02*
G01X-015870Y0060400D01*
G01X-015870Y0060400D02*
G01X-015956Y0060400D01*
G54D13*
G01X-009500Y-010000D02*
G01X-009510Y-009899D01*
G01X-009510Y-009899D02*
G01X-009540Y-009803D01*
G01X-009540Y-009803D02*
G01X-009590Y-009714D01*
G01X-009590Y-009714D02*
G01X-009655Y-009638D01*
G01X-009655Y-009638D02*
G01X-009735Y-009576D01*
G01X-009735Y-009576D02*
G01X-009826Y-009531D01*
G01X-009826Y-009531D02*
G01X-009924Y-009506D01*
G01X-009924Y-009506D02*
G01X-010025Y-009501D01*
G01X-010025Y-009501D02*
G01X-010125Y-009516D01*
G01X-010125Y-009516D02*
G01X-010220Y-009551D01*
G01X-010220Y-009551D02*
G01X-010306Y-009605D01*
G01X-010306Y-009605D02*
G01X-010379Y-009674D01*
G01X-010379Y-009674D02*
G01X-010437Y-009757D01*
G01X-010437Y-009757D02*
G01X-010477Y-009850D01*
G01X-010477Y-009850D02*
G01X-010497Y-009950D01*
G01X-010497Y-009950D02*
G01X-010497Y-010051D01*
G01X-010497Y-010051D02*
G01X-010477Y-010150D01*
G01X-010477Y-010150D02*
G01X-010437Y-010243D01*
G01X-010437Y-010243D02*
G01X-010379Y-010326D01*
G01X-010379Y-010326D02*
G01X-010306Y-010395D01*
G01X-010306Y-010395D02*
G01X-010220Y-010449D01*
G01X-010220Y-010449D02*
G01X-010125Y-010484D01*
G01X-010125Y-010484D02*
G01X-010025Y-010499D01*
G01X-010025Y-010499D02*
G01X-009924Y-010494D01*
G01X-009924Y-010494D02*
G01X-009826Y-010469D01*
G01X-009826Y-010469D02*
G01X-009735Y-010424D01*
G01X-009735Y-010424D02*
G01X-009655Y-010362D01*
G01X-009655Y-010362D02*
G01X-009590Y-010286D01*
G01X-009590Y-010286D02*
G01X-009540Y-010197D01*
G01X-009540Y-010197D02*
G01X-009510Y-010101D01*
G01X-009510Y-010101D02*
G01X-009500Y-010000D01*
G01X-009250Y-010000D02*
G01X-009257Y-009900D01*
G01X-009257Y-009900D02*
G01X-009277Y-009802D01*
G01X-009277Y-009802D02*
G01X-009309Y-009707D01*
G01X-009309Y-009707D02*
G01X-009355Y-009618D01*
G01X-009355Y-009618D02*
G01X-009411Y-009535D01*
G01X-009411Y-009535D02*
G01X-009479Y-009461D01*
G01X-009479Y-009461D02*
G01X-009555Y-009396D01*
G01X-009555Y-009396D02*
G01X-009639Y-009342D01*
G01X-009639Y-009342D02*
G01X-009730Y-009300D01*
G01X-009730Y-009300D02*
G01X-009826Y-009271D01*
G01X-009826Y-009271D02*
G01X-009925Y-009254D01*
G01X-009925Y-009254D02*
G01X-010025Y-009251D01*
G01X-010025Y-009251D02*
G01X-010125Y-009261D01*
G01X-010125Y-009261D02*
G01X-010222Y-009284D01*
G01X-010222Y-009284D02*
G01X-010316Y-009320D01*
G01X-010316Y-009320D02*
G01X-010403Y-009368D01*
G01X-010403Y-009368D02*
G01X-010484Y-009427D01*
G01X-010484Y-009427D02*
G01X-010556Y-009497D01*
G01X-010556Y-009497D02*
G01X-010618Y-009576D01*
G01X-010618Y-009576D02*
G01X-010669Y-009662D01*
G01X-010669Y-009662D02*
G01X-010708Y-009754D01*
G01X-010708Y-009754D02*
G01X-010735Y-009851D01*
G01X-010735Y-009851D02*
G01X-010748Y-009950D01*
G01X-010748Y-009950D02*
G01X-010748Y-010050D01*
G01X-010748Y-010050D02*
G01X-010735Y-010149D01*
G01X-010735Y-010149D02*
G01X-010708Y-010246D01*
G01X-010708Y-010246D02*
G01X-010669Y-010338D01*
G01X-010669Y-010338D02*
G01X-010618Y-010425D01*
G01X-010618Y-010425D02*
G01X-010556Y-010503D01*
G01X-010556Y-010503D02*
G01X-010484Y-010573D01*
G01X-010484Y-010573D02*
G01X-010403Y-010632D01*
G01X-010403Y-010632D02*
G01X-010316Y-010680D01*
G01X-010316Y-010680D02*
G01X-010222Y-010716D01*
G01X-010222Y-010716D02*
G01X-010125Y-010740D01*
G01X-010125Y-010740D02*
G01X-010025Y-010750D01*
G01X-010025Y-010750D02*
G01X-009925Y-010746D01*
G01X-009925Y-010746D02*
G01X-009826Y-010730D01*
G01X-009826Y-010730D02*
G01X-009730Y-010700D01*
G01X-009730Y-010700D02*
G01X-009639Y-010658D01*
G01X-009639Y-010658D02*
G01X-009555Y-010604D01*
G01X-009555Y-010604D02*
G01X-009479Y-010539D01*
G01X-009479Y-010539D02*
G01X-009411Y-010465D01*
G01X-009411Y-010465D02*
G01X-009355Y-010382D01*
G01X-009355Y-010382D02*
G01X-009309Y-010293D01*
G01X-009309Y-010293D02*
G01X-009277Y-010198D01*
G01X-009277Y-010198D02*
G01X-009257Y-010100D01*
G01X-009257Y-010100D02*
G01X-009250Y-010000D01*
G01X-009975Y-010000D02*
G01X-010025Y-010000D01*
G01X-010025Y-010000D02*
G01X-009975Y-010000D01*
G01X-009950Y-010000D02*
G01X-010025Y-009957D01*
G01X-010025Y-009957D02*
G01X-010025Y-010043D01*
G01X-010025Y-010043D02*
G01X-009950Y-010000D01*
G01X-009800Y-010000D02*
G01X-009823Y-009907D01*
G01X-009823Y-009907D02*
G01X-009886Y-009836D01*
G01X-009886Y-009836D02*
G01X-009976Y-009802D01*
G01X-009976Y-009802D02*
G01X-010071Y-009813D01*
G01X-010071Y-009813D02*
G01X-010150Y-009867D01*
G01X-010150Y-009867D02*
G01X-010194Y-009952D01*
G01X-010194Y-009952D02*
G01X-010194Y-010048D01*
G01X-010194Y-010048D02*
G01X-010150Y-010133D01*
G01X-010150Y-010133D02*
G01X-010071Y-010187D01*
G01X-010071Y-010187D02*
G01X-009976Y-010199D01*
G01X-009976Y-010199D02*
G01X-009886Y-010165D01*
G01X-009886Y-010165D02*
G01X-009823Y-010093D01*
G01X-009823Y-010093D02*
G01X-009800Y-010000D01*
G01X-009900Y-010000D02*
G01X-009950Y-009913D01*
G01X-009950Y-009913D02*
G01X-010050Y-009913D01*
G01X-010050Y-009913D02*
G01X-010100Y-010000D01*
G01X-010100Y-010000D02*
G01X-010050Y-010087D01*
G01X-010050Y-010087D02*
G01X-009950Y-010087D01*
G01X-009950Y-010087D02*
G01X-009900Y-010000D01*
G01X-009850Y-010000D02*
G01X-009885Y-009904D01*
G01X-009885Y-009904D02*
G01X-009974Y-009852D01*
G01X-009974Y-009852D02*
G01X-010075Y-009870D01*
G01X-010075Y-009870D02*
G01X-010141Y-009949D01*
G01X-010141Y-009949D02*
G01X-010141Y-010051D01*
G01X-010141Y-010051D02*
G01X-010075Y-010130D01*
G01X-010075Y-010130D02*
G01X-009974Y-010148D01*
G01X-009974Y-010148D02*
G01X-009885Y-010097D01*
G01X-009885Y-010097D02*
G01X-009850Y-010000D01*
G01X0130500Y-010000D02*
G01X0130490Y-009899D01*
G01X0130490Y-009899D02*
G01X0130460Y-009803D01*
G01X0130460Y-009803D02*
G01X0130410Y-009714D01*
G01X0130410Y-009714D02*
G01X0130345Y-009638D01*
G01X0130345Y-009638D02*
G01X0130265Y-009576D01*
G01X0130265Y-009576D02*
G01X0130174Y-009531D01*
G01X0130174Y-009531D02*
G01X0130076Y-009506D01*
G01X0130076Y-009506D02*
G01X0129975Y-009501D01*
G01X0129975Y-009501D02*
G01X0129875Y-009516D01*
G01X0129875Y-009516D02*
G01X0129780Y-009551D01*
G01X0129780Y-009551D02*
G01X0129694Y-009605D01*
G01X0129694Y-009605D02*
G01X0129621Y-009674D01*
G01X0129621Y-009674D02*
G01X0129563Y-009757D01*
G01X0129563Y-009757D02*
G01X0129523Y-009850D01*
G01X0129523Y-009850D02*
G01X0129503Y-009950D01*
G01X0129503Y-009950D02*
G01X0129503Y-010051D01*
G01X0129503Y-010051D02*
G01X0129523Y-010150D01*
G01X0129523Y-010150D02*
G01X0129563Y-010243D01*
G01X0129563Y-010243D02*
G01X0129621Y-010326D01*
G01X0129621Y-010326D02*
G01X0129694Y-010395D01*
G01X0129694Y-010395D02*
G01X0129780Y-010449D01*
G01X0129780Y-010449D02*
G01X0129875Y-010484D01*
G01X0129875Y-010484D02*
G01X0129975Y-010499D01*
G01X0129975Y-010499D02*
G01X0130076Y-010494D01*
G01X0130076Y-010494D02*
G01X0130174Y-010469D01*
G01X0130174Y-010469D02*
G01X0130265Y-010424D01*
G01X0130265Y-010424D02*
G01X0130345Y-010362D01*
G01X0130345Y-010362D02*
G01X0130410Y-010286D01*
G01X0130410Y-010286D02*
G01X0130460Y-010197D01*
G01X0130460Y-010197D02*
G01X0130490Y-010101D01*
G01X0130490Y-010101D02*
G01X0130500Y-010000D01*
G01X0130750Y-010000D02*
G01X0130743Y-009900D01*
G01X0130743Y-009900D02*
G01X0130723Y-009802D01*
G01X0130723Y-009802D02*
G01X0130691Y-009707D01*
G01X0130691Y-009707D02*
G01X0130645Y-009618D01*
G01X0130645Y-009618D02*
G01X0130589Y-009535D01*
G01X0130589Y-009535D02*
G01X0130521Y-009461D01*
G01X0130521Y-009461D02*
G01X0130445Y-009396D01*
G01X0130445Y-009396D02*
G01X0130361Y-009342D01*
G01X0130361Y-009342D02*
G01X0130270Y-009300D01*
G01X0130270Y-009300D02*
G01X0130174Y-009271D01*
G01X0130174Y-009271D02*
G01X0130075Y-009254D01*
G01X0130075Y-009254D02*
G01X0129975Y-009251D01*
G01X0129975Y-009251D02*
G01X0129875Y-009261D01*
G01X0129875Y-009261D02*
G01X0129778Y-009284D01*
G01X0129778Y-009284D02*
G01X0129684Y-009320D01*
G01X0129684Y-009320D02*
G01X0129597Y-009368D01*
G01X0129597Y-009368D02*
G01X0129516Y-009427D01*
G01X0129516Y-009427D02*
G01X0129444Y-009497D01*
G01X0129444Y-009497D02*
G01X0129382Y-009576D01*
G01X0129382Y-009576D02*
G01X0129331Y-009662D01*
G01X0129331Y-009662D02*
G01X0129292Y-009754D01*
G01X0129292Y-009754D02*
G01X0129265Y-009851D01*
G01X0129265Y-009851D02*
G01X0129252Y-009950D01*
G01X0129252Y-009950D02*
G01X0129252Y-010050D01*
G01X0129252Y-010050D02*
G01X0129265Y-010149D01*
G01X0129265Y-010149D02*
G01X0129292Y-010246D01*
G01X0129292Y-010246D02*
G01X0129331Y-010338D01*
G01X0129331Y-010338D02*
G01X0129382Y-010425D01*
G01X0129382Y-010425D02*
G01X0129444Y-010503D01*
G01X0129444Y-010503D02*
G01X0129516Y-010573D01*
G01X0129516Y-010573D02*
G01X0129597Y-010632D01*
G01X0129597Y-010632D02*
G01X0129684Y-010680D01*
G01X0129684Y-010680D02*
G01X0129778Y-010716D01*
G01X0129778Y-010716D02*
G01X0129875Y-010740D01*
G01X0129875Y-010740D02*
G01X0129975Y-010750D01*
G01X0129975Y-010750D02*
G01X0130075Y-010746D01*
G01X0130075Y-010746D02*
G01X0130174Y-010730D01*
G01X0130174Y-010730D02*
G01X0130270Y-010700D01*
G01X0130270Y-010700D02*
G01X0130361Y-010658D01*
G01X0130361Y-010658D02*
G01X0130445Y-010604D01*
G01X0130445Y-010604D02*
G01X0130521Y-010539D01*
G01X0130521Y-010539D02*
G01X0130589Y-010465D01*
G01X0130589Y-010465D02*
G01X0130645Y-010382D01*
G01X0130645Y-010382D02*
G01X0130691Y-010293D01*
G01X0130691Y-010293D02*
G01X0130723Y-010198D01*
G01X0130723Y-010198D02*
G01X0130743Y-010100D01*
G01X0130743Y-010100D02*
G01X0130750Y-010000D01*
G01X0130025Y-010000D02*
G01X0129975Y-010000D01*
G01X0129975Y-010000D02*
G01X0130025Y-010000D01*
G01X0130050Y-010000D02*
G01X0129975Y-009957D01*
G01X0129975Y-009957D02*
G01X0129975Y-010043D01*
G01X0129975Y-010043D02*
G01X0130050Y-010000D01*
G01X0130200Y-010000D02*
G01X0130177Y-009907D01*
G01X0130177Y-009907D02*
G01X0130114Y-009836D01*
G01X0130114Y-009836D02*
G01X0130024Y-009802D01*
G01X0130024Y-009802D02*
G01X0129929Y-009813D01*
G01X0129929Y-009813D02*
G01X0129850Y-009867D01*
G01X0129850Y-009867D02*
G01X0129806Y-009952D01*
G01X0129806Y-009952D02*
G01X0129806Y-010048D01*
G01X0129806Y-010048D02*
G01X0129850Y-010133D01*
G01X0129850Y-010133D02*
G01X0129929Y-010187D01*
G01X0129929Y-010187D02*
G01X0130024Y-010199D01*
G01X0130024Y-010199D02*
G01X0130114Y-010165D01*
G01X0130114Y-010165D02*
G01X0130177Y-010093D01*
G01X0130177Y-010093D02*
G01X0130200Y-010000D01*
G01X0130100Y-010000D02*
G01X0130050Y-009913D01*
G01X0130050Y-009913D02*
G01X0129950Y-009913D01*
G01X0129950Y-009913D02*
G01X0129900Y-010000D01*
G01X0129900Y-010000D02*
G01X0129950Y-010087D01*
G01X0129950Y-010087D02*
G01X0130050Y-010087D01*
G01X0130050Y-010087D02*
G01X0130100Y-010000D01*
G01X0130150Y-010000D02*
G01X0130115Y-009904D01*
G01X0130115Y-009904D02*
G01X0130026Y-009852D01*
G01X0130026Y-009852D02*
G01X0129925Y-009870D01*
G01X0129925Y-009870D02*
G01X0129859Y-009949D01*
G01X0129859Y-009949D02*
G01X0129859Y-010051D01*
G01X0129859Y-010051D02*
G01X0129925Y-010130D01*
G01X0129925Y-010130D02*
G01X0130026Y-010148D01*
G01X0130026Y-010148D02*
G01X0130115Y-010097D01*
G01X0130115Y-010097D02*
G01X0130150Y-010000D01*
G01X-009500Y0090000D02*
G01X-009510Y0090101D01*
G01X-009510Y0090101D02*
G01X-009540Y0090197D01*
G01X-009540Y0090197D02*
G01X-009590Y0090286D01*
G01X-009590Y0090286D02*
G01X-009655Y0090362D01*
G01X-009655Y0090362D02*
G01X-009735Y0090424D01*
G01X-009735Y0090424D02*
G01X-009826Y0090469D01*
G01X-009826Y0090469D02*
G01X-009924Y0090494D01*
G01X-009924Y0090494D02*
G01X-010025Y0090499D01*
G01X-010025Y0090499D02*
G01X-010125Y0090484D01*
G01X-010125Y0090484D02*
G01X-010220Y0090449D01*
G01X-010220Y0090449D02*
G01X-010306Y0090395D01*
G01X-010306Y0090395D02*
G01X-010379Y0090326D01*
G01X-010379Y0090326D02*
G01X-010437Y0090243D01*
G01X-010437Y0090243D02*
G01X-010477Y0090150D01*
G01X-010477Y0090150D02*
G01X-010497Y0090050D01*
G01X-010497Y0090050D02*
G01X-010497Y0089949D01*
G01X-010497Y0089949D02*
G01X-010477Y0089850D01*
G01X-010477Y0089850D02*
G01X-010437Y0089757D01*
G01X-010437Y0089757D02*
G01X-010379Y0089674D01*
G01X-010379Y0089674D02*
G01X-010306Y0089605D01*
G01X-010306Y0089605D02*
G01X-010220Y0089551D01*
G01X-010220Y0089551D02*
G01X-010125Y0089516D01*
G01X-010125Y0089516D02*
G01X-010025Y0089501D01*
G01X-010025Y0089501D02*
G01X-009924Y0089506D01*
G01X-009924Y0089506D02*
G01X-009826Y0089531D01*
G01X-009826Y0089531D02*
G01X-009735Y0089576D01*
G01X-009735Y0089576D02*
G01X-009655Y0089637D01*
G01X-009655Y0089637D02*
G01X-009590Y0089714D01*
G01X-009590Y0089714D02*
G01X-009540Y0089803D01*
G01X-009540Y0089803D02*
G01X-009510Y0089899D01*
G01X-009510Y0089899D02*
G01X-009500Y0090000D01*
G01X-009250Y0090000D02*
G01X-009257Y0090100D01*
G01X-009257Y0090100D02*
G01X-009277Y0090198D01*
G01X-009277Y0090198D02*
G01X-009309Y0090293D01*
G01X-009309Y0090293D02*
G01X-009355Y0090382D01*
G01X-009355Y0090382D02*
G01X-009411Y0090465D01*
G01X-009411Y0090465D02*
G01X-009479Y0090539D01*
G01X-009479Y0090539D02*
G01X-009555Y0090604D01*
G01X-009555Y0090604D02*
G01X-009639Y0090658D01*
G01X-009639Y0090658D02*
G01X-009730Y0090700D01*
G01X-009730Y0090700D02*
G01X-009826Y0090729D01*
G01X-009826Y0090729D02*
G01X-009925Y0090746D01*
G01X-009925Y0090746D02*
G01X-010025Y0090749D01*
G01X-010025Y0090749D02*
G01X-010125Y0090739D01*
G01X-010125Y0090739D02*
G01X-010222Y0090716D01*
G01X-010222Y0090716D02*
G01X-010316Y0090680D01*
G01X-010316Y0090680D02*
G01X-010403Y0090632D01*
G01X-010403Y0090632D02*
G01X-010484Y0090573D01*
G01X-010484Y0090573D02*
G01X-010556Y0090503D01*
G01X-010556Y0090503D02*
G01X-010618Y0090424D01*
G01X-010618Y0090424D02*
G01X-010669Y0090338D01*
G01X-010669Y0090338D02*
G01X-010708Y0090246D01*
G01X-010708Y0090246D02*
G01X-010735Y0090149D01*
G01X-010735Y0090149D02*
G01X-010748Y0090050D01*
G01X-010748Y0090050D02*
G01X-010748Y0089950D01*
G01X-010748Y0089950D02*
G01X-010735Y0089851D01*
G01X-010735Y0089851D02*
G01X-010708Y0089754D01*
G01X-010708Y0089754D02*
G01X-010669Y0089662D01*
G01X-010669Y0089662D02*
G01X-010618Y0089575D01*
G01X-010618Y0089575D02*
G01X-010556Y0089497D01*
G01X-010556Y0089497D02*
G01X-010484Y0089427D01*
G01X-010484Y0089427D02*
G01X-010403Y0089368D01*
G01X-010403Y0089368D02*
G01X-010316Y0089320D01*
G01X-010316Y0089320D02*
G01X-010222Y0089284D01*
G01X-010222Y0089284D02*
G01X-010125Y0089260D01*
G01X-010125Y0089260D02*
G01X-010025Y0089250D01*
G01X-010025Y0089250D02*
G01X-009925Y0089254D01*
G01X-009925Y0089254D02*
G01X-009826Y0089270D01*
G01X-009826Y0089270D02*
G01X-009730Y0089300D01*
G01X-009730Y0089300D02*
G01X-009639Y0089342D01*
G01X-009639Y0089342D02*
G01X-009555Y0089396D01*
G01X-009555Y0089396D02*
G01X-009479Y0089461D01*
G01X-009479Y0089461D02*
G01X-009411Y0089535D01*
G01X-009411Y0089535D02*
G01X-009355Y0089618D01*
G01X-009355Y0089618D02*
G01X-009309Y0089707D01*
G01X-009309Y0089707D02*
G01X-009277Y0089802D01*
G01X-009277Y0089802D02*
G01X-009257Y0089900D01*
G01X-009257Y0089900D02*
G01X-009250Y0090000D01*
G01X-009975Y0090000D02*
G01X-010025Y0090000D01*
G01X-010025Y0090000D02*
G01X-009975Y0090000D01*
G01X-009950Y0090000D02*
G01X-010025Y0090043D01*
G01X-010025Y0090043D02*
G01X-010025Y0089957D01*
G01X-010025Y0089957D02*
G01X-009950Y0090000D01*
G01X-009800Y0090000D02*
G01X-009823Y0090093D01*
G01X-009823Y0090093D02*
G01X-009886Y0090164D01*
G01X-009886Y0090164D02*
G01X-009976Y0090198D01*
G01X-009976Y0090198D02*
G01X-010071Y0090187D01*
G01X-010071Y0090187D02*
G01X-010150Y0090133D01*
G01X-010150Y0090133D02*
G01X-010194Y0090048D01*
G01X-010194Y0090048D02*
G01X-010194Y0089952D01*
G01X-010194Y0089952D02*
G01X-010150Y0089867D01*
G01X-010150Y0089867D02*
G01X-010071Y0089813D01*
G01X-010071Y0089813D02*
G01X-009976Y0089801D01*
G01X-009976Y0089801D02*
G01X-009886Y0089835D01*
G01X-009886Y0089835D02*
G01X-009823Y0089907D01*
G01X-009823Y0089907D02*
G01X-009800Y0090000D01*
G01X-009900Y0090000D02*
G01X-009950Y0090086D01*
G01X-009950Y0090086D02*
G01X-010050Y0090086D01*
G01X-010050Y0090086D02*
G01X-010100Y0090000D01*
G01X-010100Y0090000D02*
G01X-010050Y0089913D01*
G01X-010050Y0089913D02*
G01X-009950Y0089913D01*
G01X-009950Y0089913D02*
G01X-009900Y0090000D01*
G01X-009850Y0090000D02*
G01X-009885Y0090096D01*
G01X-009885Y0090096D02*
G01X-009974Y0090148D01*
G01X-009974Y0090148D02*
G01X-010075Y0090130D01*
G01X-010075Y0090130D02*
G01X-010141Y0090051D01*
G01X-010141Y0090051D02*
G01X-010141Y0089949D01*
G01X-010141Y0089949D02*
G01X-010075Y0089870D01*
G01X-010075Y0089870D02*
G01X-009974Y0089852D01*
G01X-009974Y0089852D02*
G01X-009885Y0089903D01*
G01X-009885Y0089903D02*
G01X-009850Y0090000D01*
G01X-015000Y0080000D02*
G01X-013000Y0080000D01*
G01X-013750Y0079000D02*
G01X-013000Y0079000D01*
G01X-013750Y0078000D02*
G01X-013000Y0078000D01*
G01X-013750Y0077000D02*
G01X-013000Y0077000D01*
G01X-013750Y0076000D02*
G01X-013000Y0076000D01*
G01X-014500Y0075000D02*
G01X-013000Y0075000D01*
G01X-013750Y0074000D02*
G01X-013000Y0074000D01*
G01X-013750Y0073000D02*
G01X-013000Y0073000D01*
G01X-013750Y0072000D02*
G01X-013000Y0072000D01*
G01X-013750Y0071000D02*
G01X-013000Y0071000D01*
G01X-013750Y0061000D02*
G01X-013000Y0061000D01*
G01X-013750Y0062000D02*
G01X-013000Y0062000D01*
G01X-013750Y0063000D02*
G01X-013000Y0063000D01*
G01X-013750Y0064000D02*
G01X-013000Y0064000D01*
G01X-014500Y0065000D02*
G01X-013000Y0065000D01*
G01X-013750Y0066000D02*
G01X-013000Y0066000D01*
G01X-013750Y0067000D02*
G01X-013000Y0067000D01*
G01X-013750Y0068000D02*
G01X-013000Y0068000D01*
G01X-013750Y0069000D02*
G01X-013000Y0069000D01*
G01X-015000Y0070000D02*
G01X-013000Y0070000D01*
G01X-015000Y0060000D02*
G01X-013000Y0060000D01*
G01X-013750Y0059000D02*
G01X-013000Y0059000D01*
G01X-013750Y0058000D02*
G01X-013000Y0058000D01*
G01X-013750Y0057000D02*
G01X-013000Y0057000D01*
G01X-013750Y0056000D02*
G01X-013000Y0056000D01*
G01X-014500Y0055000D02*
G01X-013000Y0055000D01*
G01X-013750Y0054000D02*
G01X-013000Y0054000D01*
G01X-013750Y0053000D02*
G01X-013000Y0053000D01*
G01X-013750Y0052000D02*
G01X-013000Y0052000D01*
G01X-013750Y0051000D02*
G01X-013000Y0051000D01*
G01X-015000Y0050000D02*
G01X-013000Y0050000D01*
G01X-013750Y0049000D02*
G01X-013000Y0049000D01*
G01X-013750Y0048000D02*
G01X-013000Y0048000D01*
G01X-013750Y0047000D02*
G01X-013000Y0047000D01*
G01X-013750Y0046000D02*
G01X-013000Y0046000D01*
G01X-014500Y0045000D02*
G01X-013000Y0045000D01*
G01X-013750Y0044000D02*
G01X-013000Y0044000D01*
G01X-013750Y0043000D02*
G01X-013000Y0043000D01*
G01X-013750Y0042000D02*
G01X-013000Y0042000D01*
G01X-013750Y0041000D02*
G01X-013000Y0041000D01*
G01X-015000Y0040000D02*
G01X-013000Y0040000D01*
G01X-013750Y0039000D02*
G01X-013000Y0039000D01*
G01X-013750Y0038000D02*
G01X-013000Y0038000D01*
G01X-013750Y0037000D02*
G01X-013000Y0037000D01*
G01X-013750Y0036000D02*
G01X-013000Y0036000D01*
G01X-014500Y0035000D02*
G01X-013000Y0035000D01*
G01X-013750Y0034000D02*
G01X-013000Y0034000D01*
G01X-013750Y0033000D02*
G01X-013000Y0033000D01*
G01X-013750Y0032000D02*
G01X-013000Y0032000D01*
G01X-013750Y0031000D02*
G01X-013000Y0031000D01*
G01X-015000Y0030000D02*
G01X-013000Y0030000D01*
G01X-013750Y0029000D02*
G01X-013000Y0029000D01*
G01X-013750Y0028000D02*
G01X-013000Y0028000D01*
G01X-013750Y0027000D02*
G01X-013000Y0027000D01*
G01X-013750Y0026000D02*
G01X-013000Y0026000D01*
G01X-014500Y0025000D02*
G01X-013000Y0025000D01*
G01X-013750Y0024000D02*
G01X-013000Y0024000D01*
G01X-013750Y0023000D02*
G01X-013000Y0023000D01*
G01X-013750Y0022000D02*
G01X-013000Y0022000D01*
G01X-013750Y0021000D02*
G01X-013000Y0021000D01*
G01X-015000Y0020000D02*
G01X-013000Y0020000D01*
G01X-013750Y0019000D02*
G01X-013000Y0019000D01*
G01X-013750Y0018000D02*
G01X-013000Y0018000D01*
G01X-013750Y0017000D02*
G01X-013000Y0017000D01*
G01X-013750Y0016000D02*
G01X-013000Y0016000D01*
G01X-014500Y0015000D02*
G01X-013000Y0015000D01*
G01X-013750Y0014000D02*
G01X-013000Y0014000D01*
G01X-013750Y0013000D02*
G01X-013000Y0013000D01*
G01X-013750Y0012000D02*
G01X-013000Y0012000D01*
G01X-013750Y0011000D02*
G01X-013000Y0011000D01*
G01X-015000Y0010000D02*
G01X-013000Y0010000D01*
G01X-013750Y0009000D02*
G01X-013000Y0009000D01*
G01X-013750Y0008000D02*
G01X-013000Y0008000D01*
G01X-013750Y0007000D02*
G01X-013000Y0007000D01*
G01X-013750Y0006000D02*
G01X-013000Y0006000D01*
G01X-014500Y0005000D02*
G01X-013000Y0005000D01*
G01X-013750Y0004000D02*
G01X-013000Y0004000D01*
G01X-013750Y0003000D02*
G01X-013000Y0003000D01*
G01X-013750Y0002000D02*
G01X-013000Y0002000D01*
G01X-013750Y0001000D02*
G01X-013000Y0001000D01*
G01X-015000Y0000000D02*
G01X-013000Y0000000D01*
G01X-013750Y-001000D02*
G01X-013000Y-001000D01*
G01X-013750Y-002000D02*
G01X-013000Y-002000D01*
G01X-013750Y-003000D02*
G01X-013000Y-003000D01*
G01X-013750Y-004000D02*
G01X-013000Y-004000D01*
G01X-014500Y-005000D02*
G01X-013000Y-005000D01*
G01X-013750Y-006000D02*
G01X-013000Y-006000D01*
G01X-013750Y-007000D02*
G01X-013000Y-007000D01*
G01X-013750Y-008000D02*
G01X-013000Y-008000D01*
G01X-013750Y-009000D02*
G01X-013000Y-009000D01*
G01X-015000Y-010000D02*
G01X-013000Y-010000D01*
G01X-011000Y-013000D02*
G01X-010750Y-013000D01*
G01X-013045Y-010600D02*
G01X-012955Y-010600D01*
G01X-013195Y-010705D02*
G01X-012805Y-010705D01*
G01X-013095Y-010635D02*
G01X-012905Y-010635D01*
G01X-013145Y-010670D02*
G01X-012855Y-010670D01*
G01X-013250Y-010750D02*
G01X-012750Y-010750D01*
G01X-013000Y-013000D02*
G01X-012250Y-013000D01*
G01X-015000Y0090000D02*
G01X-013000Y0090000D01*
G01X-013750Y0089000D02*
G01X-013000Y0089000D01*
G01X-013750Y0088000D02*
G01X-013000Y0088000D01*
G01X-013750Y0087000D02*
G01X-013000Y0087000D01*
G01X-013750Y0086000D02*
G01X-013000Y0086000D01*
G01X-014500Y0085000D02*
G01X-013000Y0085000D01*
G01X-013750Y0084000D02*
G01X-013000Y0084000D01*
G01X-013750Y0083000D02*
G01X-013000Y0083000D01*
G01X-013750Y0082000D02*
G01X-013000Y0082000D01*
G01X-013750Y0081000D02*
G01X-013000Y0081000D01*
G01X-009250Y-010000D02*
G01X-008800Y-010000D01*
G01X-012200Y-010000D02*
G01X-010750Y-010000D01*
G01X0120000Y-015000D02*
G01X0120000Y-013000D01*
G01X0119000Y-013750D02*
G01X0119000Y-013000D01*
G01X0118000Y-013750D02*
G01X0118000Y-013000D01*
G01X0117000Y-013750D02*
G01X0117000Y-013000D01*
G01X0116000Y-013750D02*
G01X0116000Y-013000D01*
G01X0115000Y-014500D02*
G01X0115000Y-013000D01*
G01X0114000Y-013750D02*
G01X0114000Y-013000D01*
G01X0113000Y-013750D02*
G01X0113000Y-013000D01*
G01X0112000Y-013750D02*
G01X0112000Y-013000D01*
G01X0111000Y-013750D02*
G01X0111000Y-013000D01*
G01X0050000Y-015000D02*
G01X0050000Y-013000D01*
G01X0049000Y-013750D02*
G01X0049000Y-013000D01*
G01X0048000Y-013750D02*
G01X0048000Y-013000D01*
G01X0047000Y-013750D02*
G01X0047000Y-013000D01*
G01X0046000Y-013750D02*
G01X0046000Y-013000D01*
G01X0045000Y-014500D02*
G01X0045000Y-013000D01*
G01X0044000Y-013750D02*
G01X0044000Y-013000D01*
G01X0043000Y-013750D02*
G01X0043000Y-013000D01*
G01X0042000Y-013750D02*
G01X0042000Y-013000D01*
G01X0041000Y-013750D02*
G01X0041000Y-013000D01*
G01X0040000Y-015000D02*
G01X0040000Y-013000D01*
G01X0039000Y-013750D02*
G01X0039000Y-013000D01*
G01X0038000Y-013750D02*
G01X0038000Y-013000D01*
G01X0037000Y-013750D02*
G01X0037000Y-013000D01*
G01X0036000Y-013750D02*
G01X0036000Y-013000D01*
G01X0035000Y-014500D02*
G01X0035000Y-013000D01*
G01X0034000Y-013750D02*
G01X0034000Y-013000D01*
G01X0033000Y-013750D02*
G01X0033000Y-013000D01*
G01X0032000Y-013750D02*
G01X0032000Y-013000D01*
G01X0031000Y-013750D02*
G01X0031000Y-013000D01*
G01X0030000Y-015000D02*
G01X0030000Y-013000D01*
G01X0029000Y-013750D02*
G01X0029000Y-013000D01*
G01X0028000Y-013750D02*
G01X0028000Y-013000D01*
G01X0027000Y-013750D02*
G01X0027000Y-013000D01*
G01X0026000Y-013750D02*
G01X0026000Y-013000D01*
G01X0025000Y-014500D02*
G01X0025000Y-013000D01*
G01X0024000Y-013750D02*
G01X0024000Y-013000D01*
G01X0023000Y-013750D02*
G01X0023000Y-013000D01*
G01X0022000Y-013750D02*
G01X0022000Y-013000D01*
G01X0021000Y-013750D02*
G01X0021000Y-013000D01*
G01X0020000Y-015000D02*
G01X0020000Y-013000D01*
G01X0019000Y-013750D02*
G01X0019000Y-013000D01*
G01X0018000Y-013750D02*
G01X0018000Y-013000D01*
G01X0017000Y-013750D02*
G01X0017000Y-013000D01*
G01X0016000Y-013750D02*
G01X0016000Y-013000D01*
G01X0015000Y-014500D02*
G01X0015000Y-013000D01*
G01X0014000Y-013750D02*
G01X0014000Y-013000D01*
G01X0013000Y-013750D02*
G01X0013000Y-013000D01*
G01X0012000Y-013750D02*
G01X0012000Y-013000D01*
G01X0011000Y-013750D02*
G01X0011000Y-013000D01*
G01X0010000Y-015000D02*
G01X0010000Y-013000D01*
G01X0009000Y-013750D02*
G01X0009000Y-013000D01*
G01X0008000Y-013750D02*
G01X0008000Y-013000D01*
G01X0007000Y-013750D02*
G01X0007000Y-013000D01*
G01X0006000Y-013750D02*
G01X0006000Y-013000D01*
G01X0005000Y-014500D02*
G01X0005000Y-013000D01*
G01X0004000Y-013750D02*
G01X0004000Y-013000D01*
G01X0003000Y-013750D02*
G01X0003000Y-013000D01*
G01X0002000Y-013750D02*
G01X0002000Y-013000D01*
G01X0001000Y-013750D02*
G01X0001000Y-013000D01*
G01X0000000Y-015000D02*
G01X0000000Y-013000D01*
G01X-001000Y-013750D02*
G01X-001000Y-013000D01*
G01X-002000Y-013750D02*
G01X-002000Y-013000D01*
G01X-003000Y-013750D02*
G01X-003000Y-013000D01*
G01X-004000Y-013750D02*
G01X-004000Y-013000D01*
G01X-005000Y-014500D02*
G01X-005000Y-013000D01*
G01X-006000Y-013750D02*
G01X-006000Y-013000D01*
G01X-007000Y-013750D02*
G01X-007000Y-013000D01*
G01X-008000Y-013750D02*
G01X-008000Y-013000D01*
G01X-009000Y-013750D02*
G01X-009000Y-013000D01*
G01X-010000Y-015000D02*
G01X-010000Y-013000D01*
G01X-010600Y-013045D02*
G01X-010600Y-012955D01*
G01X-010705Y-013195D02*
G01X-010705Y-012805D01*
G01X-010635Y-013095D02*
G01X-010635Y-012905D01*
G01X-013000Y-011000D02*
G01X-013000Y-010750D01*
G01X-010670Y-013145D02*
G01X-010670Y-012855D01*
G01X-010750Y-013250D02*
G01X-010750Y-012750D01*
G01X-013000Y-013000D02*
G01X-013000Y-012250D01*
G01X0090000Y-015000D02*
G01X0090000Y-013000D01*
G01X0089000Y-013750D02*
G01X0089000Y-013000D01*
G01X0088000Y-013750D02*
G01X0088000Y-013000D01*
G01X0087000Y-013750D02*
G01X0087000Y-013000D01*
G01X0086000Y-013750D02*
G01X0086000Y-013000D01*
G01X0085000Y-014500D02*
G01X0085000Y-013000D01*
G01X0084000Y-013750D02*
G01X0084000Y-013000D01*
G01X0083000Y-013750D02*
G01X0083000Y-013000D01*
G01X0082000Y-013750D02*
G01X0082000Y-013000D01*
G01X0081000Y-013750D02*
G01X0081000Y-013000D01*
G01X0080000Y-015000D02*
G01X0080000Y-013000D01*
G01X0079000Y-013750D02*
G01X0079000Y-013000D01*
G01X0078000Y-013750D02*
G01X0078000Y-013000D01*
G01X0077000Y-013750D02*
G01X0077000Y-013000D01*
G01X0076000Y-013750D02*
G01X0076000Y-013000D01*
G01X0075000Y-014500D02*
G01X0075000Y-013000D01*
G01X0074000Y-013750D02*
G01X0074000Y-013000D01*
G01X0073000Y-013750D02*
G01X0073000Y-013000D01*
G01X0072000Y-013750D02*
G01X0072000Y-013000D01*
G01X0071000Y-013750D02*
G01X0071000Y-013000D01*
G01X0070000Y-015000D02*
G01X0070000Y-013000D01*
G01X0069000Y-013750D02*
G01X0069000Y-013000D01*
G01X0068000Y-013750D02*
G01X0068000Y-013000D01*
G01X0067000Y-013750D02*
G01X0067000Y-013000D01*
G01X0066000Y-013750D02*
G01X0066000Y-013000D01*
G01X0065000Y-014500D02*
G01X0065000Y-013000D01*
G01X0064000Y-013750D02*
G01X0064000Y-013000D01*
G01X0063000Y-013750D02*
G01X0063000Y-013000D01*
G01X0062000Y-013750D02*
G01X0062000Y-013000D01*
G01X0061000Y-013750D02*
G01X0061000Y-013000D01*
G01X0060000Y-015000D02*
G01X0060000Y-013000D01*
G01X0059000Y-013750D02*
G01X0059000Y-013000D01*
G01X0058000Y-013750D02*
G01X0058000Y-013000D01*
G01X0057000Y-013750D02*
G01X0057000Y-013000D01*
G01X0056000Y-013750D02*
G01X0056000Y-013000D01*
G01X0055000Y-014500D02*
G01X0055000Y-013000D01*
G01X0054000Y-013750D02*
G01X0054000Y-013000D01*
G01X0053000Y-013750D02*
G01X0053000Y-013000D01*
G01X0052000Y-013750D02*
G01X0052000Y-013000D01*
G01X0051000Y-013750D02*
G01X0051000Y-013000D01*
G01X0110000Y-015000D02*
G01X0110000Y-013000D01*
G01X0109000Y-013750D02*
G01X0109000Y-013000D01*
G01X0108000Y-013750D02*
G01X0108000Y-013000D01*
G01X0107000Y-013750D02*
G01X0107000Y-013000D01*
G01X0106000Y-013750D02*
G01X0106000Y-013000D01*
G01X0105000Y-014500D02*
G01X0105000Y-013000D01*
G01X0104000Y-013750D02*
G01X0104000Y-013000D01*
G01X0103000Y-013750D02*
G01X0103000Y-013000D01*
G01X0102000Y-013750D02*
G01X0102000Y-013000D01*
G01X0101000Y-013750D02*
G01X0101000Y-013000D01*
G01X0100000Y-015000D02*
G01X0100000Y-013000D01*
G01X0099000Y-013750D02*
G01X0099000Y-013000D01*
G01X0098000Y-013750D02*
G01X0098000Y-013000D01*
G01X0097000Y-013750D02*
G01X0097000Y-013000D01*
G01X0096000Y-013750D02*
G01X0096000Y-013000D01*
G01X0095000Y-014500D02*
G01X0095000Y-013000D01*
G01X0094000Y-013750D02*
G01X0094000Y-013000D01*
G01X0093000Y-013750D02*
G01X0093000Y-013000D01*
G01X0092000Y-013750D02*
G01X0092000Y-013000D01*
G01X0091000Y-013750D02*
G01X0091000Y-013000D01*
G01X0090000Y-015000D02*
G01X0090000Y-013000D01*
G01X0130000Y-015000D02*
G01X0130000Y-013000D01*
G01X0129000Y-013750D02*
G01X0129000Y-013000D01*
G01X0128000Y-013750D02*
G01X0128000Y-013000D01*
G01X0127000Y-013750D02*
G01X0127000Y-013000D01*
G01X0126000Y-013750D02*
G01X0126000Y-013000D01*
G01X0125000Y-014500D02*
G01X0125000Y-013000D01*
G01X0124000Y-013750D02*
G01X0124000Y-013000D01*
G01X0123000Y-013750D02*
G01X0123000Y-013000D01*
G01X0122000Y-013750D02*
G01X0122000Y-013000D01*
G01X0121000Y-013750D02*
G01X0121000Y-013000D01*
G01X-010000Y-012200D02*
G01X-010000Y-010750D01*
G01X-010000Y-009250D02*
G01X-010000Y-008800D01*
G01X-010000Y-010000D02*
G01X-009650Y-009650D01*
G01X-010350Y-010350D02*
G01X-010000Y-010000D01*
G01X-010000Y-010000D02*
G01X-009650Y-010350D01*
G01X-010350Y-009650D02*
G01X-010000Y-010000D01*
G01X-010600Y-013045D02*
G01X-010470Y-013000D01*
G01X-010600Y-012955D02*
G01X-010470Y-013000D01*
G01X-010705Y-013195D02*
G01X-010125Y-013000D01*
G01X-010705Y-012805D02*
G01X-010125Y-013000D01*
G01X-010635Y-013095D02*
G01X-010355Y-013000D01*
G01X-010635Y-012905D02*
G01X-010355Y-013000D01*
G01X-013000Y-010470D02*
G01X-012955Y-010600D01*
G01X-013045Y-010600D02*
G01X-013000Y-010470D01*
G01X-013000Y-010125D02*
G01X-012805Y-010705D01*
G01X-013195Y-010705D02*
G01X-013000Y-010125D01*
G01X-013000Y-010355D02*
G01X-012905Y-010635D01*
G01X-013095Y-010635D02*
G01X-013000Y-010355D01*
G01X-013000Y-010240D02*
G01X-012855Y-010670D01*
G01X-013145Y-010670D02*
G01X-013000Y-010240D01*
G01X-013250Y-010750D02*
G01X-013000Y-010000D01*
G01X-013000Y-010000D02*
G01X-012750Y-010750D01*
G01X-010670Y-013145D02*
G01X-010240Y-013000D01*
G01X-010670Y-012855D02*
G01X-010240Y-013000D01*
G01X-010750Y-012750D02*
G01X-010000Y-013000D01*
G01X-010750Y-013250D02*
G01X-010000Y-013000D01*
G01X0130750Y-010000D02*
G01X0131200Y-010000D01*
G01X0128800Y-010000D02*
G01X0129250Y-010000D01*
G01X0130000Y-012200D02*
G01X0130000Y-010750D01*
G01X0130000Y-009250D02*
G01X0130000Y-008800D01*
G01X0130000Y-010000D02*
G01X0130350Y-009650D01*
G01X0129650Y-010350D02*
G01X0130000Y-010000D01*
G01X0130000Y-010000D02*
G01X0130350Y-010350D01*
G01X0129650Y-009650D02*
G01X0130000Y-010000D01*
G01X-009250Y0090000D02*
G01X-008800Y0090000D01*
G01X-012200Y0090000D02*
G01X-010750Y0090000D01*
G01X-010000Y0088800D02*
G01X-010000Y0089250D01*
G01X-010000Y0090750D02*
G01X-010000Y0091200D01*
G01X-010000Y0090000D02*
G01X-009650Y0090350D01*
G01X-010350Y0089650D02*
G01X-010000Y0090000D01*
G01X-010000Y0090000D02*
G01X-009650Y0089650D01*
G01X-010350Y0090350D02*
G01X-010000Y0090000D01*
G01X0000800Y0091700D02*
G01X0000900Y0091800D01*
G01X0000900Y0091800D02*
G01X0001100Y0091800D01*
G01X0001100Y0091800D02*
G01X0001200Y0091700D01*
G01X0001200Y0091700D02*
G01X0001200Y0091600D01*
G01X0001200Y0091600D02*
G01X0001100Y0091500D01*
G01X0001100Y0091500D02*
G01X0001000Y0091500D01*
G01X0001000Y0091500D02*
G01X0001100Y0091500D01*
G01X0001100Y0091500D02*
G01X0001200Y0091400D01*
G01X0001200Y0091400D02*
G01X0001200Y0091300D01*
G01X0001200Y0091300D02*
G01X0001100Y0091200D01*
G01X0001100Y0091200D02*
G01X0000900Y0091200D01*
G01X0000900Y0091200D02*
G01X0000800Y0091300D01*
G01X0001400Y0091700D02*
G01X0001500Y0091800D01*
G01X0001500Y0091800D02*
G01X0001700Y0091800D01*
G01X0001700Y0091800D02*
G01X0001800Y0091700D01*
G01X0001800Y0091700D02*
G01X0001800Y0091300D01*
G01X0001800Y0091300D02*
G01X0001700Y0091200D01*
G01X0001700Y0091200D02*
G01X0001500Y0091200D01*
G01X0001500Y0091200D02*
G01X0001400Y0091300D01*
G01X0001400Y0091300D02*
G01X0001400Y0091700D01*
G01X0001200Y0090600D02*
G01X0000800Y0090600D01*
G01X0000800Y0090600D02*
G01X0000800Y0090300D01*
G01X0000800Y0090300D02*
G01X0001000Y0090400D01*
G01X0001000Y0090400D02*
G01X0001100Y0090400D01*
G01X0001100Y0090400D02*
G01X0001200Y0090300D01*
G01X0001200Y0090300D02*
G01X0001200Y0090100D01*
G01X0001200Y0090100D02*
G01X0001100Y0090000D01*
G01X0001100Y0090000D02*
G01X0000900Y0090000D01*
G01X0000900Y0090000D02*
G01X0000800Y0090100D01*
G01X0001800Y0090600D02*
G01X0001400Y0090600D01*
G01X0001400Y0090600D02*
G01X0001400Y0090300D01*
G01X0001400Y0090300D02*
G01X0001600Y0090400D01*
G01X0001600Y0090400D02*
G01X0001700Y0090400D01*
G01X0001700Y0090400D02*
G01X0001800Y0090300D01*
G01X0001800Y0090300D02*
G01X0001800Y0090100D01*
G01X0001800Y0090100D02*
G01X0001700Y0090000D01*
G01X0001700Y0090000D02*
G01X0001500Y0090000D01*
G01X0001500Y0090000D02*
G01X0001400Y0090100D01*
G01X-005600Y0091700D02*
G01X-005700Y0091800D01*
G01X-005700Y0091800D02*
G01X-005900Y0091800D01*
G01X-005900Y0091800D02*
G01X-006000Y0091700D01*
G01X-006000Y0091700D02*
G01X-006000Y0091300D01*
G01X-006000Y0091300D02*
G01X-005900Y0091200D01*
G01X-005900Y0091200D02*
G01X-005700Y0091200D01*
G01X-005700Y0091200D02*
G01X-005600Y0091300D01*
G01X-005300Y0091200D02*
G01X-005100Y0091200D01*
G01X-005100Y0091200D02*
G01X-005000Y0091300D01*
G01X-005000Y0091300D02*
G01X-005000Y0091500D01*
G01X-005000Y0091500D02*
G01X-005100Y0091600D01*
G01X-005100Y0091600D02*
G01X-005300Y0091600D01*
G01X-005300Y0091600D02*
G01X-005400Y0091500D01*
G01X-005400Y0091500D02*
G01X-005400Y0091300D01*
G01X-005400Y0091300D02*
G01X-005300Y0091200D01*
G01X-004800Y0091200D02*
G01X-004800Y0091600D01*
G01X-004800Y0091600D02*
G01X-004700Y0091600D01*
G01X-004700Y0091600D02*
G01X-004600Y0091500D01*
G01X-004600Y0091500D02*
G01X-004600Y0091200D01*
G01X-004600Y0091200D02*
G01X-004600Y0091500D01*
G01X-004600Y0091500D02*
G01X-004500Y0091600D01*
G01X-004500Y0091600D02*
G01X-004401Y0091500D01*
G01X-004401Y0091500D02*
G01X-004401Y0091200D01*
G01X-004201Y0091000D02*
G01X-004201Y0091600D01*
G01X-004201Y0091600D02*
G01X-003901Y0091600D01*
G01X-003901Y0091600D02*
G01X-003801Y0091500D01*
G01X-003801Y0091500D02*
G01X-003801Y0091300D01*
G01X-003801Y0091300D02*
G01X-003901Y0091200D01*
G01X-003901Y0091200D02*
G01X-004201Y0091200D01*
G01X-003501Y0091200D02*
G01X-003301Y0091200D01*
G01X-003301Y0091200D02*
G01X-003201Y0091300D01*
G01X-003201Y0091300D02*
G01X-003201Y0091500D01*
G01X-003201Y0091500D02*
G01X-003301Y0091600D01*
G01X-003301Y0091600D02*
G01X-003501Y0091600D01*
G01X-003501Y0091600D02*
G01X-003601Y0091500D01*
G01X-003601Y0091500D02*
G01X-003601Y0091300D01*
G01X-003601Y0091300D02*
G01X-003501Y0091200D01*
G01X-003001Y0091200D02*
G01X-003001Y0091600D01*
G01X-003001Y0091600D02*
G01X-002701Y0091600D01*
G01X-002701Y0091600D02*
G01X-002601Y0091500D01*
G01X-002601Y0091500D02*
G01X-002601Y0091200D01*
G01X-002101Y0091200D02*
G01X-002301Y0091200D01*
G01X-002301Y0091200D02*
G01X-002401Y0091300D01*
G01X-002401Y0091300D02*
G01X-002401Y0091500D01*
G01X-002401Y0091500D02*
G01X-002301Y0091600D01*
G01X-002301Y0091600D02*
G01X-002101Y0091600D01*
G01X-002101Y0091600D02*
G01X-002001Y0091500D01*
G01X-002001Y0091500D02*
G01X-002001Y0091400D01*
G01X-002001Y0091400D02*
G01X-002401Y0091400D01*
G01X-001801Y0091200D02*
G01X-001801Y0091600D01*
G01X-001801Y0091600D02*
G01X-001501Y0091600D01*
G01X-001501Y0091600D02*
G01X-001401Y0091500D01*
G01X-001401Y0091500D02*
G01X-001401Y0091200D01*
G01X-001102Y0091700D02*
G01X-001102Y0091600D01*
G01X-001102Y0091600D02*
G01X-001202Y0091600D01*
G01X-001202Y0091600D02*
G01X-001002Y0091600D01*
G01X-001002Y0091600D02*
G01X-001102Y0091600D01*
G01X-001102Y0091600D02*
G01X-001102Y0091300D01*
G01X-001102Y0091300D02*
G01X-001002Y0091200D01*
G01X-000702Y0091200D02*
G01X-000402Y0091200D01*
G01X-000402Y0091200D02*
G01X-000302Y0091300D01*
G01X-000302Y0091300D02*
G01X-000402Y0091400D01*
G01X-000402Y0091400D02*
G01X-000602Y0091400D01*
G01X-000602Y0091400D02*
G01X-000702Y0091500D01*
G01X-000702Y0091500D02*
G01X-000602Y0091600D01*
G01X-000602Y0091600D02*
G01X-000302Y0091600D01*
G01X-002400Y0090000D02*
G01X-002400Y0090600D01*
G01X-002400Y0090600D02*
G01X-002000Y0090000D01*
G01X-002000Y0090000D02*
G01X-002000Y0090600D01*
G01X-001500Y0090000D02*
G01X-001700Y0090000D01*
G01X-001700Y0090000D02*
G01X-001800Y0090100D01*
G01X-001800Y0090100D02*
G01X-001800Y0090300D01*
G01X-001800Y0090300D02*
G01X-001700Y0090400D01*
G01X-001700Y0090400D02*
G01X-001500Y0090400D01*
G01X-001500Y0090400D02*
G01X-001400Y0090300D01*
G01X-001400Y0090300D02*
G01X-001400Y0090200D01*
G01X-001400Y0090200D02*
G01X-001800Y0090200D01*
G01X-001100Y0090500D02*
G01X-001100Y0090400D01*
G01X-001100Y0090400D02*
G01X-001200Y0090400D01*
G01X-001200Y0090400D02*
G01X-001000Y0090400D01*
G01X-001000Y0090400D02*
G01X-001100Y0090400D01*
G01X-001100Y0090400D02*
G01X-001100Y0090100D01*
G01X-001100Y0090100D02*
G01X-001000Y0090000D01*
G01X-000701Y0090000D02*
G01X-000401Y0090000D01*
G01X-000401Y0090000D02*
G01X-000301Y0090100D01*
G01X-000301Y0090100D02*
G01X-000401Y0090200D01*
G01X-000401Y0090200D02*
G01X-000601Y0090200D01*
G01X-000601Y0090200D02*
G01X-000701Y0090300D01*
G01X-000701Y0090300D02*
G01X-000601Y0090400D01*
G01X-000601Y0090400D02*
G01X-000301Y0090400D01*
G01X-003000Y0089400D02*
G01X-003000Y0088800D01*
G01X-003000Y0088800D02*
G01X-003000Y0089100D01*
G01X-003000Y0089100D02*
G01X-002600Y0089100D01*
G01X-002600Y0089100D02*
G01X-002600Y0089400D01*
G01X-002600Y0089400D02*
G01X-002600Y0088800D01*
G01X-002300Y0088800D02*
G01X-002100Y0088800D01*
G01X-002100Y0088800D02*
G01X-002000Y0088900D01*
G01X-002000Y0088900D02*
G01X-002000Y0089100D01*
G01X-002000Y0089100D02*
G01X-002100Y0089200D01*
G01X-002100Y0089200D02*
G01X-002300Y0089200D01*
G01X-002300Y0089200D02*
G01X-002400Y0089100D01*
G01X-002400Y0089100D02*
G01X-002400Y0088900D01*
G01X-002400Y0088900D02*
G01X-002300Y0088800D01*
G01X-001800Y0088800D02*
G01X-001600Y0088800D01*
G01X-001600Y0088800D02*
G01X-001700Y0088800D01*
G01X-001700Y0088800D02*
G01X-001700Y0089400D01*
G01X-001700Y0089400D02*
G01X-001800Y0089400D01*
G01X-001001Y0088800D02*
G01X-001201Y0088800D01*
G01X-001201Y0088800D02*
G01X-001301Y0088900D01*
G01X-001301Y0088900D02*
G01X-001301Y0089100D01*
G01X-001301Y0089100D02*
G01X-001201Y0089200D01*
G01X-001201Y0089200D02*
G01X-001001Y0089200D01*
G01X-001001Y0089200D02*
G01X-000901Y0089100D01*
G01X-000901Y0089100D02*
G01X-000901Y0089000D01*
G01X-000901Y0089000D02*
G01X-001301Y0089000D01*
G01X-000701Y0088800D02*
G01X-000401Y0088800D01*
G01X-000401Y0088800D02*
G01X-000301Y0088900D01*
G01X-000301Y0088900D02*
G01X-000401Y0089000D01*
G01X-000401Y0089000D02*
G01X-000601Y0089000D01*
G01X-000601Y0089000D02*
G01X-000701Y0089100D01*
G01X-000701Y0089100D02*
G01X-000601Y0089200D01*
G01X-000601Y0089200D02*
G01X-000301Y0089200D01*
G01X0001100Y0088800D02*
G01X0001100Y0089400D01*
G01X0001100Y0089400D02*
G01X0000800Y0089100D01*
G01X0000800Y0089100D02*
G01X0001200Y0089100D01*
G01X0001800Y0088800D02*
G01X0001400Y0088800D01*
G01X0001400Y0088800D02*
G01X0001800Y0089200D01*
G01X0001800Y0089200D02*
G01X0001800Y0089300D01*
G01X0001800Y0089300D02*
G01X0001700Y0089400D01*
G01X0001700Y0089400D02*
G01X0001500Y0089400D01*
G01X0001500Y0089400D02*
G01X0001400Y0089300D01*
G01X0002000Y0089300D02*
G01X0002100Y0089400D01*
G01X0002100Y0089400D02*
G01X0002300Y0089400D01*
G01X0002300Y0089400D02*
G01X0002399Y0089300D01*
G01X0002399Y0089300D02*
G01X0002399Y0088900D01*
G01X0002399Y0088900D02*
G01X0002300Y0088800D01*
G01X0002300Y0088800D02*
G01X0002100Y0088800D01*
G01X0002100Y0088800D02*
G01X0002000Y0088900D01*
G01X0002000Y0088900D02*
G01X0002000Y0089300D01*
G54D14*
G01X0036563Y0021962D02*
G01X0036492Y0022030D01*
G01X0036492Y0022030D02*
G01X0036418Y0022094D01*
G01X0036418Y0022094D02*
G01X0036341Y0022154D01*
G01X0036341Y0022154D02*
G01X0036260Y0022211D01*
G01X0036260Y0022211D02*
G01X0036177Y0022263D01*
G01X0036177Y0022263D02*
G01X0036092Y0022312D01*
G01X0036092Y0022312D02*
G01X0036004Y0022356D01*
G01X0036004Y0022356D02*
G01X0035915Y0022396D01*
G01X0035915Y0022396D02*
G01X0035823Y0022431D01*
G01X0035823Y0022431D02*
G01X0035730Y0022462D01*
G01X0035730Y0022462D02*
G01X0035635Y0022488D01*
G01X0035635Y0022488D02*
G01X0035539Y0022510D01*
G01X0035539Y0022510D02*
G01X0035443Y0022526D01*
G01X0035443Y0022526D02*
G01X0035345Y0022538D01*
G01X0035345Y0022538D02*
G01X0035247Y0022546D01*
G01X0035247Y0022546D02*
G01X0035149Y0022548D01*
G01X0044554Y0013088D02*
G01X0044618Y0013162D01*
G01X0044618Y0013162D02*
G01X0044669Y0013246D01*
G01X0044669Y0013246D02*
G01X0044706Y0013337D01*
G01X0044706Y0013337D02*
G01X0044729Y0013432D01*
G01X0044729Y0013432D02*
G01X0044737Y0013530D01*
G01X0044737Y0013530D02*
G01X0044729Y0013627D01*
G01X0044729Y0013627D02*
G01X0044706Y0013723D01*
G01X0044706Y0013723D02*
G01X0044669Y0013813D01*
G01X0044669Y0013813D02*
G01X0044618Y0013897D01*
G01X0044618Y0013897D02*
G01X0044554Y0013972D01*
G01X0030765Y0000183D02*
G01X0030840Y0000119D01*
G01X0030840Y0000119D02*
G01X0030924Y0000068D01*
G01X0030924Y0000068D02*
G01X0031014Y0000031D01*
G01X0031014Y0000031D02*
G01X0031110Y0000008D01*
G01X0031110Y0000008D02*
G01X0031207Y0000000D01*
G01X0031207Y0000000D02*
G01X0031305Y0000008D01*
G01X0031305Y0000008D02*
G01X0031400Y0000031D01*
G01X0031400Y0000031D02*
G01X0031491Y0000068D01*
G01X0031491Y0000068D02*
G01X0031575Y0000119D01*
G01X0031575Y0000119D02*
G01X0031649Y0000183D01*
G01X0027672Y0003277D02*
G01X0027601Y0003347D01*
G01X0027601Y0003347D02*
G01X0027529Y0003416D01*
G01X0027529Y0003416D02*
G01X0027456Y0003484D01*
G01X0027456Y0003484D02*
G01X0027382Y0003551D01*
G01X0027382Y0003551D02*
G01X0027307Y0003618D01*
G01X0027307Y0003618D02*
G01X0027232Y0003683D01*
G01X0027232Y0003683D02*
G01X0027155Y0003747D01*
G01X0027155Y0003747D02*
G01X0027078Y0003810D01*
G01X0027078Y0003810D02*
G01X0027000Y0003872D01*
G01X0027000Y0003872D02*
G01X0026921Y0003934D01*
G01X0026921Y0003934D02*
G01X0026841Y0003994D01*
G01X0026841Y0003994D02*
G01X0026761Y0004053D01*
G01X0026761Y0004053D02*
G01X0026679Y0004111D01*
G01X0026679Y0004111D02*
G01X0026597Y0004167D01*
G01X0026597Y0004167D02*
G01X0026515Y0004223D01*
G01X0026515Y0004223D02*
G01X0026431Y0004278D01*
G01X0026431Y0004278D02*
G01X0026347Y0004331D01*
G01X0026347Y0004331D02*
G01X0026262Y0004384D01*
G01X0026262Y0004384D02*
G01X0026176Y0004435D01*
G01X0026176Y0004435D02*
G01X0026090Y0004485D01*
G01X0026090Y0004485D02*
G01X0026003Y0004534D01*
G01X0026003Y0004534D02*
G01X0025915Y0004582D01*
G01X0025915Y0004582D02*
G01X0025827Y0004628D01*
G01X0025827Y0004628D02*
G01X0025738Y0004674D01*
G01X0025738Y0004674D02*
G01X0025648Y0004718D01*
G01X0025648Y0004718D02*
G01X0025558Y0004761D01*
G01X0025558Y0004761D02*
G01X0025468Y0004803D01*
G01X0025468Y0004803D02*
G01X0025376Y0004844D01*
G01X0025376Y0004844D02*
G01X0025285Y0004883D01*
G01X0025285Y0004883D02*
G01X0025192Y0004921D01*
G01X0025192Y0004921D02*
G01X0025100Y0004958D01*
G01X0025100Y0004958D02*
G01X0025007Y0004994D01*
G01X0025007Y0004994D02*
G01X0024913Y0005029D01*
G01X0024913Y0005029D02*
G01X0024819Y0005062D01*
G01X0024819Y0005062D02*
G01X0024724Y0005094D01*
G01X0024724Y0005094D02*
G01X0024629Y0005125D01*
G01X0024629Y0005125D02*
G01X0024534Y0005154D01*
G01X0024534Y0005154D02*
G01X0024438Y0005182D01*
G01X0024438Y0005182D02*
G01X0024342Y0005209D01*
G01X0024342Y0005209D02*
G01X0024245Y0005235D01*
G01X0024245Y0005235D02*
G01X0024148Y0005259D01*
G01X0024148Y0005259D02*
G01X0024051Y0005282D01*
G01X0024051Y0005282D02*
G01X0023954Y0005304D01*
G01X0023954Y0005304D02*
G01X0023856Y0005324D01*
G01X0023856Y0005324D02*
G01X0023758Y0005343D01*
G01X0023758Y0005343D02*
G01X0023660Y0005361D01*
G01X0023660Y0005361D02*
G01X0023562Y0005378D01*
G01X0023562Y0005378D02*
G01X0023463Y0005393D01*
G01X0023463Y0005393D02*
G01X0023364Y0005407D01*
G01X0023364Y0005407D02*
G01X0023265Y0005420D01*
G01X0023265Y0005420D02*
G01X0023166Y0005431D01*
G01X0023166Y0005431D02*
G01X0023066Y0005441D01*
G01X0023066Y0005441D02*
G01X0022967Y0005449D01*
G01X0022967Y0005449D02*
G01X0022867Y0005457D01*
G01X0022867Y0005457D02*
G01X0022768Y0005463D01*
G01X0022768Y0005463D02*
G01X0022668Y0005467D01*
G01X0022668Y0005467D02*
G01X0022568Y0005471D01*
G01X0022568Y0005471D02*
G01X0022468Y0005473D01*
G01X0022468Y0005473D02*
G01X0022369Y0005473D01*
G01X0022369Y0005473D02*
G01X0022269Y0005473D01*
G01X0022269Y0005473D02*
G01X0022169Y0005471D01*
G01X0022169Y0005471D02*
G01X0022069Y0005467D01*
G01X0022069Y0005467D02*
G01X0021969Y0005463D01*
G01X0021969Y0005463D02*
G01X0021870Y0005457D01*
G01X0021870Y0005457D02*
G01X0021770Y0005449D01*
G01X0021770Y0005449D02*
G01X0021671Y0005441D01*
G01X0021671Y0005441D02*
G01X0021571Y0005431D01*
G01X0021571Y0005431D02*
G01X0021472Y0005420D01*
G01X0021472Y0005420D02*
G01X0021373Y0005407D01*
G01X0021373Y0005407D02*
G01X0021274Y0005393D01*
G01X0021274Y0005393D02*
G01X0021176Y0005378D01*
G01X0021176Y0005378D02*
G01X0021077Y0005361D01*
G01X0021077Y0005361D02*
G01X0020979Y0005343D01*
G01X0020979Y0005343D02*
G01X0020881Y0005324D01*
G01X0020881Y0005324D02*
G01X0020783Y0005304D01*
G01X0020783Y0005304D02*
G01X0020686Y0005282D01*
G01X0020686Y0005282D02*
G01X0020589Y0005259D01*
G01X0020589Y0005259D02*
G01X0020492Y0005235D01*
G01X0020492Y0005235D02*
G01X0020395Y0005209D01*
G01X0020395Y0005209D02*
G01X0020299Y0005182D01*
G01X0020299Y0005182D02*
G01X0020203Y0005154D01*
G01X0020203Y0005154D02*
G01X0020108Y0005125D01*
G01X0020108Y0005125D02*
G01X0020013Y0005094D01*
G01X0020013Y0005094D02*
G01X0019918Y0005062D01*
G01X0019918Y0005062D02*
G01X0019824Y0005029D01*
G01X0019824Y0005029D02*
G01X0019731Y0004994D01*
G01X0019731Y0004994D02*
G01X0019637Y0004958D01*
G01X0019637Y0004958D02*
G01X0019545Y0004921D01*
G01X0019545Y0004921D02*
G01X0019452Y0004883D01*
G01X0019452Y0004883D02*
G01X0019361Y0004844D01*
G01X0019361Y0004844D02*
G01X0019269Y0004803D01*
G01X0019269Y0004803D02*
G01X0019179Y0004761D01*
G01X0019179Y0004761D02*
G01X0019089Y0004718D01*
G01X0019089Y0004718D02*
G01X0018999Y0004674D01*
G01X0018999Y0004674D02*
G01X0018910Y0004629D01*
G01X0018910Y0004629D02*
G01X0018822Y0004582D01*
G01X0018822Y0004582D02*
G01X0018734Y0004534D01*
G01X0018734Y0004534D02*
G01X0018647Y0004485D01*
G01X0018647Y0004485D02*
G01X0018561Y0004435D01*
G01X0018561Y0004435D02*
G01X0018475Y0004384D01*
G01X0018475Y0004384D02*
G01X0018390Y0004331D01*
G01X0018390Y0004331D02*
G01X0018306Y0004278D01*
G01X0018306Y0004278D02*
G01X0018223Y0004223D01*
G01X0018223Y0004223D02*
G01X0018140Y0004167D01*
G01X0018140Y0004167D02*
G01X0018058Y0004111D01*
G01X0018058Y0004111D02*
G01X0017976Y0004053D01*
G01X0017976Y0004053D02*
G01X0017896Y0003994D01*
G01X0017896Y0003994D02*
G01X0017816Y0003934D01*
G01X0017816Y0003934D02*
G01X0017737Y0003873D01*
G01X0017737Y0003873D02*
G01X0017659Y0003810D01*
G01X0017659Y0003810D02*
G01X0017582Y0003747D01*
G01X0017582Y0003747D02*
G01X0017505Y0003683D01*
G01X0017505Y0003683D02*
G01X0017430Y0003618D01*
G01X0017430Y0003618D02*
G01X0017355Y0003551D01*
G01X0017355Y0003551D02*
G01X0017281Y0003484D01*
G01X0017281Y0003484D02*
G01X0017208Y0003416D01*
G01X0017208Y0003416D02*
G01X0017136Y0003347D01*
G01X0017136Y0003347D02*
G01X0017065Y0003277D01*
G01X0013088Y0000183D02*
G01X0013162Y0000119D01*
G01X0013162Y0000119D02*
G01X0013246Y0000068D01*
G01X0013246Y0000068D02*
G01X0013337Y0000031D01*
G01X0013337Y0000031D02*
G01X0013432Y0000008D01*
G01X0013432Y0000008D02*
G01X0013530Y0000000D01*
G01X0013530Y0000000D02*
G01X0013627Y0000008D01*
G01X0013627Y0000008D02*
G01X0013723Y0000031D01*
G01X0013723Y0000031D02*
G01X0013813Y0000068D01*
G01X0013813Y0000068D02*
G01X0013897Y0000119D01*
G01X0013897Y0000119D02*
G01X0013972Y0000183D01*
G01X0000183Y0013972D02*
G01X0000119Y0013897D01*
G01X0000119Y0013897D02*
G01X0000068Y0013813D01*
G01X0000068Y0013813D02*
G01X0000031Y0013723D01*
G01X0000031Y0013723D02*
G01X0000008Y0013627D01*
G01X0000008Y0013627D02*
G01X0000000Y0013530D01*
G01X0000000Y0013530D02*
G01X0000008Y0013432D01*
G01X0000008Y0013432D02*
G01X0000031Y0013337D01*
G01X0000031Y0013337D02*
G01X0000068Y0013246D01*
G01X0000068Y0013246D02*
G01X0000119Y0013162D01*
G01X0000119Y0013162D02*
G01X0000183Y0013088D01*
G01X0009588Y0022548D02*
G01X0009490Y0022546D01*
G01X0009490Y0022546D02*
G01X0009392Y0022538D01*
G01X0009392Y0022538D02*
G01X0009294Y0022526D01*
G01X0009294Y0022526D02*
G01X0009198Y0022510D01*
G01X0009198Y0022510D02*
G01X0009102Y0022488D01*
G01X0009102Y0022488D02*
G01X0009007Y0022462D01*
G01X0009007Y0022462D02*
G01X0008914Y0022431D01*
G01X0008914Y0022431D02*
G01X0008822Y0022396D01*
G01X0008822Y0022396D02*
G01X0008733Y0022356D01*
G01X0008733Y0022356D02*
G01X0008645Y0022312D01*
G01X0008645Y0022312D02*
G01X0008560Y0022263D01*
G01X0008560Y0022263D02*
G01X0008477Y0022211D01*
G01X0008477Y0022211D02*
G01X0008396Y0022154D01*
G01X0008396Y0022154D02*
G01X0008319Y0022094D01*
G01X0008319Y0022094D02*
G01X0008245Y0022030D01*
G01X0008245Y0022030D02*
G01X0008174Y0021962D01*
G01X0036563Y0021962D02*
G01X0044554Y0013972D01*
G01X0000183Y0013972D02*
G01X0008174Y0021962D01*
G01X0009588Y0022548D02*
G01X0035149Y0022548D01*
G01X0031649Y0000183D02*
G01X0044554Y0013088D01*
G01X0027672Y0003277D02*
G01X0030765Y0000183D01*
G01X0013972Y0000183D02*
G01X0017065Y0003277D01*
G01X0000183Y0013088D02*
G01X0013088Y0000183D01*
G01X0036563Y0021962D02*
G01X0036492Y0022030D01*
G01X0036492Y0022030D02*
G01X0036418Y0022094D01*
G01X0036418Y0022094D02*
G01X0036341Y0022154D01*
G01X0036341Y0022154D02*
G01X0036260Y0022211D01*
G01X0036260Y0022211D02*
G01X0036177Y0022263D01*
G01X0036177Y0022263D02*
G01X0036092Y0022312D01*
G01X0036092Y0022312D02*
G01X0036004Y0022356D01*
G01X0036004Y0022356D02*
G01X0035915Y0022396D01*
G01X0035915Y0022396D02*
G01X0035823Y0022431D01*
G01X0035823Y0022431D02*
G01X0035730Y0022462D01*
G01X0035730Y0022462D02*
G01X0035635Y0022488D01*
G01X0035635Y0022488D02*
G01X0035539Y0022510D01*
G01X0035539Y0022510D02*
G01X0035443Y0022526D01*
G01X0035443Y0022526D02*
G01X0035345Y0022538D01*
G01X0035345Y0022538D02*
G01X0035247Y0022546D01*
G01X0035247Y0022546D02*
G01X0035149Y0022548D01*
G01X0044554Y0013088D02*
G01X0044618Y0013162D01*
G01X0044618Y0013162D02*
G01X0044669Y0013246D01*
G01X0044669Y0013246D02*
G01X0044706Y0013337D01*
G01X0044706Y0013337D02*
G01X0044729Y0013432D01*
G01X0044729Y0013432D02*
G01X0044737Y0013530D01*
G01X0044737Y0013530D02*
G01X0044729Y0013627D01*
G01X0044729Y0013627D02*
G01X0044706Y0013723D01*
G01X0044706Y0013723D02*
G01X0044669Y0013813D01*
G01X0044669Y0013813D02*
G01X0044618Y0013897D01*
G01X0044618Y0013897D02*
G01X0044554Y0013972D01*
G01X0030765Y0000183D02*
G01X0030840Y0000119D01*
G01X0030840Y0000119D02*
G01X0030924Y0000068D01*
G01X0030924Y0000068D02*
G01X0031014Y0000031D01*
G01X0031014Y0000031D02*
G01X0031110Y0000008D01*
G01X0031110Y0000008D02*
G01X0031207Y0000000D01*
G01X0031207Y0000000D02*
G01X0031305Y0000008D01*
G01X0031305Y0000008D02*
G01X0031400Y0000031D01*
G01X0031400Y0000031D02*
G01X0031491Y0000068D01*
G01X0031491Y0000068D02*
G01X0031575Y0000119D01*
G01X0031575Y0000119D02*
G01X0031649Y0000183D01*
G01X0027672Y0003277D02*
G01X0027601Y0003347D01*
G01X0027601Y0003347D02*
G01X0027529Y0003416D01*
G01X0027529Y0003416D02*
G01X0027456Y0003484D01*
G01X0027456Y0003484D02*
G01X0027382Y0003551D01*
G01X0027382Y0003551D02*
G01X0027307Y0003618D01*
G01X0027307Y0003618D02*
G01X0027232Y0003683D01*
G01X0027232Y0003683D02*
G01X0027155Y0003747D01*
G01X0027155Y0003747D02*
G01X0027078Y0003810D01*
G01X0027078Y0003810D02*
G01X0027000Y0003872D01*
G01X0027000Y0003872D02*
G01X0026921Y0003934D01*
G01X0026921Y0003934D02*
G01X0026841Y0003994D01*
G01X0026841Y0003994D02*
G01X0026761Y0004053D01*
G01X0026761Y0004053D02*
G01X0026679Y0004111D01*
G01X0026679Y0004111D02*
G01X0026597Y0004167D01*
G01X0026597Y0004167D02*
G01X0026515Y0004223D01*
G01X0026515Y0004223D02*
G01X0026431Y0004278D01*
G01X0026431Y0004278D02*
G01X0026347Y0004331D01*
G01X0026347Y0004331D02*
G01X0026262Y0004384D01*
G01X0026262Y0004384D02*
G01X0026176Y0004435D01*
G01X0026176Y0004435D02*
G01X0026090Y0004485D01*
G01X0026090Y0004485D02*
G01X0026003Y0004534D01*
G01X0026003Y0004534D02*
G01X0025915Y0004582D01*
G01X0025915Y0004582D02*
G01X0025827Y0004628D01*
G01X0025827Y0004628D02*
G01X0025738Y0004674D01*
G01X0025738Y0004674D02*
G01X0025648Y0004718D01*
G01X0025648Y0004718D02*
G01X0025558Y0004761D01*
G01X0025558Y0004761D02*
G01X0025468Y0004803D01*
G01X0025468Y0004803D02*
G01X0025376Y0004844D01*
G01X0025376Y0004844D02*
G01X0025285Y0004883D01*
G01X0025285Y0004883D02*
G01X0025192Y0004921D01*
G01X0025192Y0004921D02*
G01X0025100Y0004958D01*
G01X0025100Y0004958D02*
G01X0025007Y0004994D01*
G01X0025007Y0004994D02*
G01X0024913Y0005029D01*
G01X0024913Y0005029D02*
G01X0024819Y0005062D01*
G01X0024819Y0005062D02*
G01X0024724Y0005094D01*
G01X0024724Y0005094D02*
G01X0024629Y0005125D01*
G01X0024629Y0005125D02*
G01X0024534Y0005154D01*
G01X0024534Y0005154D02*
G01X0024438Y0005182D01*
G01X0024438Y0005182D02*
G01X0024342Y0005209D01*
G01X0024342Y0005209D02*
G01X0024245Y0005235D01*
G01X0024245Y0005235D02*
G01X0024148Y0005259D01*
G01X0024148Y0005259D02*
G01X0024051Y0005282D01*
G01X0024051Y0005282D02*
G01X0023954Y0005304D01*
G01X0023954Y0005304D02*
G01X0023856Y0005324D01*
G01X0023856Y0005324D02*
G01X0023758Y0005343D01*
G01X0023758Y0005343D02*
G01X0023660Y0005361D01*
G01X0023660Y0005361D02*
G01X0023562Y0005378D01*
G01X0023562Y0005378D02*
G01X0023463Y0005393D01*
G01X0023463Y0005393D02*
G01X0023364Y0005407D01*
G01X0023364Y0005407D02*
G01X0023265Y0005420D01*
G01X0023265Y0005420D02*
G01X0023166Y0005431D01*
G01X0023166Y0005431D02*
G01X0023066Y0005441D01*
G01X0023066Y0005441D02*
G01X0022967Y0005449D01*
G01X0022967Y0005449D02*
G01X0022867Y0005457D01*
G01X0022867Y0005457D02*
G01X0022768Y0005463D01*
G01X0022768Y0005463D02*
G01X0022668Y0005467D01*
G01X0022668Y0005467D02*
G01X0022568Y0005471D01*
G01X0022568Y0005471D02*
G01X0022468Y0005473D01*
G01X0022468Y0005473D02*
G01X0022369Y0005473D01*
G01X0022369Y0005473D02*
G01X0022269Y0005473D01*
G01X0022269Y0005473D02*
G01X0022169Y0005471D01*
G01X0022169Y0005471D02*
G01X0022069Y0005467D01*
G01X0022069Y0005467D02*
G01X0021969Y0005463D01*
G01X0021969Y0005463D02*
G01X0021870Y0005457D01*
G01X0021870Y0005457D02*
G01X0021770Y0005449D01*
G01X0021770Y0005449D02*
G01X0021671Y0005441D01*
G01X0021671Y0005441D02*
G01X0021571Y0005431D01*
G01X0021571Y0005431D02*
G01X0021472Y0005420D01*
G01X0021472Y0005420D02*
G01X0021373Y0005407D01*
G01X0021373Y0005407D02*
G01X0021274Y0005393D01*
G01X0021274Y0005393D02*
G01X0021176Y0005378D01*
G01X0021176Y0005378D02*
G01X0021077Y0005361D01*
G01X0021077Y0005361D02*
G01X0020979Y0005343D01*
G01X0020979Y0005343D02*
G01X0020881Y0005324D01*
G01X0020881Y0005324D02*
G01X0020783Y0005304D01*
G01X0020783Y0005304D02*
G01X0020686Y0005282D01*
G01X0020686Y0005282D02*
G01X0020589Y0005259D01*
G01X0020589Y0005259D02*
G01X0020492Y0005235D01*
G01X0020492Y0005235D02*
G01X0020395Y0005209D01*
G01X0020395Y0005209D02*
G01X0020299Y0005182D01*
G01X0020299Y0005182D02*
G01X0020203Y0005154D01*
G01X0020203Y0005154D02*
G01X0020108Y0005125D01*
G01X0020108Y0005125D02*
G01X0020013Y0005094D01*
G01X0020013Y0005094D02*
G01X0019918Y0005062D01*
G01X0019918Y0005062D02*
G01X0019824Y0005029D01*
G01X0019824Y0005029D02*
G01X0019731Y0004994D01*
G01X0019731Y0004994D02*
G01X0019637Y0004958D01*
G01X0019637Y0004958D02*
G01X0019545Y0004921D01*
G01X0019545Y0004921D02*
G01X0019452Y0004883D01*
G01X0019452Y0004883D02*
G01X0019361Y0004844D01*
G01X0019361Y0004844D02*
G01X0019269Y0004803D01*
G01X0019269Y0004803D02*
G01X0019179Y0004761D01*
G01X0019179Y0004761D02*
G01X0019089Y0004718D01*
G01X0019089Y0004718D02*
G01X0018999Y0004674D01*
G01X0018999Y0004674D02*
G01X0018910Y0004629D01*
G01X0018910Y0004629D02*
G01X0018822Y0004582D01*
G01X0018822Y0004582D02*
G01X0018734Y0004534D01*
G01X0018734Y0004534D02*
G01X0018647Y0004485D01*
G01X0018647Y0004485D02*
G01X0018561Y0004435D01*
G01X0018561Y0004435D02*
G01X0018475Y0004384D01*
G01X0018475Y0004384D02*
G01X0018390Y0004331D01*
G01X0018390Y0004331D02*
G01X0018306Y0004278D01*
G01X0018306Y0004278D02*
G01X0018223Y0004223D01*
G01X0018223Y0004223D02*
G01X0018140Y0004167D01*
G01X0018140Y0004167D02*
G01X0018058Y0004111D01*
G01X0018058Y0004111D02*
G01X0017976Y0004053D01*
G01X0017976Y0004053D02*
G01X0017896Y0003994D01*
G01X0017896Y0003994D02*
G01X0017816Y0003934D01*
G01X0017816Y0003934D02*
G01X0017737Y0003873D01*
G01X0017737Y0003873D02*
G01X0017659Y0003810D01*
G01X0017659Y0003810D02*
G01X0017582Y0003747D01*
G01X0017582Y0003747D02*
G01X0017505Y0003683D01*
G01X0017505Y0003683D02*
G01X0017430Y0003618D01*
G01X0017430Y0003618D02*
G01X0017355Y0003551D01*
G01X0017355Y0003551D02*
G01X0017281Y0003484D01*
G01X0017281Y0003484D02*
G01X0017208Y0003416D01*
G01X0017208Y0003416D02*
G01X0017136Y0003347D01*
G01X0017136Y0003347D02*
G01X0017065Y0003277D01*
G01X0013088Y0000183D02*
G01X0013162Y0000119D01*
G01X0013162Y0000119D02*
G01X0013246Y0000068D01*
G01X0013246Y0000068D02*
G01X0013337Y0000031D01*
G01X0013337Y0000031D02*
G01X0013432Y0000008D01*
G01X0013432Y0000008D02*
G01X0013530Y0000000D01*
G01X0013530Y0000000D02*
G01X0013627Y0000008D01*
G01X0013627Y0000008D02*
G01X0013723Y0000031D01*
G01X0013723Y0000031D02*
G01X0013813Y0000068D01*
G01X0013813Y0000068D02*
G01X0013897Y0000119D01*
G01X0013897Y0000119D02*
G01X0013972Y0000183D01*
G01X0000183Y0013972D02*
G01X0000119Y0013897D01*
G01X0000119Y0013897D02*
G01X0000068Y0013813D01*
G01X0000068Y0013813D02*
G01X0000031Y0013723D01*
G01X0000031Y0013723D02*
G01X0000008Y0013627D01*
G01X0000008Y0013627D02*
G01X0000000Y0013530D01*
G01X0000000Y0013530D02*
G01X0000008Y0013432D01*
G01X0000008Y0013432D02*
G01X0000031Y0013337D01*
G01X0000031Y0013337D02*
G01X0000068Y0013246D01*
G01X0000068Y0013246D02*
G01X0000119Y0013162D01*
G01X0000119Y0013162D02*
G01X0000183Y0013088D01*
G01X0009588Y0022548D02*
G01X0009490Y0022546D01*
G01X0009490Y0022546D02*
G01X0009392Y0022538D01*
G01X0009392Y0022538D02*
G01X0009294Y0022526D01*
G01X0009294Y0022526D02*
G01X0009198Y0022510D01*
G01X0009198Y0022510D02*
G01X0009102Y0022488D01*
G01X0009102Y0022488D02*
G01X0009007Y0022462D01*
G01X0009007Y0022462D02*
G01X0008914Y0022431D01*
G01X0008914Y0022431D02*
G01X0008822Y0022396D01*
G01X0008822Y0022396D02*
G01X0008733Y0022356D01*
G01X0008733Y0022356D02*
G01X0008645Y0022312D01*
G01X0008645Y0022312D02*
G01X0008560Y0022263D01*
G01X0008560Y0022263D02*
G01X0008477Y0022211D01*
G01X0008477Y0022211D02*
G01X0008396Y0022154D01*
G01X0008396Y0022154D02*
G01X0008319Y0022094D01*
G01X0008319Y0022094D02*
G01X0008245Y0022030D01*
G01X0008245Y0022030D02*
G01X0008174Y0021962D01*
G01X0000000Y-001000D02*
G01X0000000Y0000000D01*
G01X-001000Y0000000D02*
G01X0000000Y0000000D01*
G01X0036563Y0021962D02*
G01X0044554Y0013972D01*
G01X0000183Y0013972D02*
G01X0008174Y0021962D01*
G01X0009588Y0022548D02*
G01X0035149Y0022548D01*
G01X0031649Y0000183D02*
G01X0044554Y0013088D01*
G01X0027672Y0003277D02*
G01X0030765Y0000183D01*
G01X0013972Y0000183D02*
G01X0017065Y0003277D01*
G01X0000183Y0013088D02*
G01X0013088Y0000183D01*
M02*
